<?xml version="1.0" encoding="utf-8"?>
<!-- Generator: Adobe Illustrator 16.0.3, SVG Export Plug-In . SVG Version: 6.00 Build 0)  -->
<!DOCTYPE svg PUBLIC "-//W3C//DTD SVG 1.1//EN" "http://www.w3.org/Graphics/SVG/1.1/DTD/svg11.dtd">
<svg version="1.1" id="Capa_1" xmlns="http://www.w3.org/2000/svg" xmlns:xlink="http://www.w3.org/1999/xlink" x="0px" y="0px"
	 width="617.336px" height="95.808px" viewBox="0 0 617.336 95.808" enable-background="new 0 0 617.336 95.808"
	 xml:space="preserve">
<g>
	<path fill="#DDBB4B" d="M229.321,54.432c-0.221,1.325-0.221,1.325-0.441,2.54c0,0,0,0,1.214,0c-1.767,2.54-1.987,3.754-3.644,6.293
		c0,0,0,0-0.221,1.215c0.994,1.325-0.221,1.325-0.442,2.54c0,0,0,0-1.546,1.325c-0.11,0.552-0.11,0.883,0,0.883
		c0.221,0,0.552-0.331,1.325-0.883l-0.221,1.215c0,0,0,0-0.221,1.214c0,0-1.325,0-0.221,1.325l-0.221,1.215
		c-1.546,1.325-0.442,2.54-1.987,3.754c-0.221,1.325-0.663,3.754-1.104,6.293c0,0,0.062,1.413-0.442,2.54
		c-8.982,20.1-84.007-6.615-84.228-5.4c0,0-0.221,1.325-1.436,1.325c0,0-1.104-1.325-2.318-1.325
		c-0.111,0.662-0.111,0.994-0.111,0.994s0-0.332,0.111-0.994c0,0-1.325,0-1.104-1.215c0,0,0,0-1.214,0
		c-0.552,0.442-1.854,0.523-2.517,0.523c-0.883,0-1.017-0.302-2.231-1.848c0,0-1.104-1.215,0.221-1.215l0.221-1.214
		c-1.114-1.844,0.669-3.671,3.644-2.297c27.356,12.641,83.247,23.495,82.02,6.372c-0.184-2.57,2.208-4.969,2.65-7.508
		c0.441-2.539,0.663-3.754,0.883-5.079l0.221-1.215c1.436-1.325,1.656-2.54,1.877-3.754c-1.214,0,0.221-1.325,0.442-2.54
		c0,0,1.546-1.214,1.767-2.54c0.221-1.214,0.441-2.54,0.662-3.754c0.442-2.54,2.429-6.293,2.871-8.833
		c1.877-3.754,3.864-7.508,4.306-10.047c1.656-2.429,1.877-3.754,2.318-6.293c1.767-2.429,2.429-6.183,3.092-10.048l0.221-1.214
		c0.442-2.54,1.767-2.54,2.981-2.54c1.215,0,2.54,0,2.54,0l0.994,1.325c0.994,1.215,0.994,1.215,2.098,2.429
		c1.214,0,1.214,0,1.214,0c0.994,1.325,0.773,2.54,2.098,2.54c-0.221,1.325-0.221,1.325-0.221,1.325
		c-0.662,3.754-1.104,6.183-0.552,10.047c-0.442,2.429-0.883,4.969-1.325,7.508c-0.552,2.539,0.552,3.754,0.11,6.293
		c0,0-0.221,1.214,0.773,2.54c-0.221,1.214-0.441,2.429,0.332,4.968c-1.656,2.54,0.331,5.079-0.111,7.508
		c-0.221,1.325-0.441,2.539,0.663,3.754c0,0-0.221,1.325-0.441,2.54c0.772,2.54,1.545,5.079,1.104,7.618
		c0.994,1.215,0.552,3.754,1.656,4.969c0.994,1.214,1.767,3.754,1.545,5.079c1.325,0,1.325,0,1.325,0
		c0.552,0.552,0.773,0.883,0.883,0.883c0.221,0,0.221-0.332,0.331-0.883c1.656-2.54,1.877-3.865,3.644-6.293
		c0.883-5.079,2.871-8.833,4.968-13.912c0.663-3.754,1.104-6.183,3.092-10.048c0,0,0.221-1.214,1.656-2.429l0.221-1.325
		c0.221-1.214,0.221-1.214,0.221-1.214c0.552-2.54,0.994-5.079,1.436-7.508c0,0,0.221-1.325,1.435-1.325
		c-0.773-2.54,0.663-3.754,0.883-4.969c0,0,1.325,0,1.546-1.325c-1.325,0-1.325,0-1.104-1.215l0.221-1.214
		c0.221-1.325,0.441-2.54,1.767-2.54c1.436-1.325,0.221-1.325,0.221-1.325c0.221-1.215,0.221-1.215,0.221-1.215
		c0.221-1.214,1.436-1.214,0.221-1.214c0.221-1.325,0.221-1.325,0.221-1.325c1.214,0,1.214,0,0.221-1.214
		c0.221-1.214,2.54,0,1.767-2.54l0.221-1.214c0.11-0.442,0.11-0.552,0.11-0.552l-0.11,0.552h1.214
		c0.221-1.325,0.441-2.54,0.663-3.754c0.221-1.325-0.994-1.325,0.441-2.539l0.221-1.215c1.546-1.325,1.546-1.325,1.767-2.54
		c0.221-1.325,0.221-1.325,1.436-1.325s1.214,0,2.54,0c0.552,0.663,0.773,0.663,0.994,0.663c0.11,0,0.11,0,0,0.662
		c1.104,1.215,0.773,2.54,0.773,2.54c-1.214,0-0.442,2.429-1.656,2.429c-0.221,1.325-0.221,1.325-0.221,1.325l-0.221,1.215
		c0,0,0.221-1.215-0.994-1.215c1.436-1.325,1.656-2.539,1.877-3.754l0.221-1.325c-0.663,0.663-1.104,0.994-1.215,0.994
		s-0.11-0.331,0-0.994c-1.545,1.325-1.767,2.54-2.208,5.079c-1.215,0-1.215,0-1.215,0c1.436-1.325,0.442-2.539,0.663-3.754
		c0,0,0,0,0.221-1.325c-0.221,1.325-0.221,1.325-1.656,2.54c-0.773,3.754-2.65,7.508-3.533,12.587
		c-0.442,2.429-1.988,3.754-2.429,6.293c-0.663,3.754-2.319,6.183-2.871,8.723c-0.663,3.754-2.319,6.293-2.761,8.833
		c-0.221,1.214-0.662,3.754-0.883,4.968c-1.988,3.865-2.871,8.833-4.858,12.587c-0.441,2.54-0.663,3.754-1.104,6.293
		c-1.436,1.325-1.436,1.325-0.221,1.325l0.221-1.325c0.221-1.215,0.441-2.54,0.663-3.754c1.545-1.215,1.656-1.988,1.987-3.754
		c0.221-1.325,1.656-2.54,2.098-5.079c-0.331,2.098-0.773,4.195-1.104,6.293c-0.221,1.325-0.442,2.54-0.663,3.754
		c-1.656,2.54-2.318,6.293-4.306,10.047c0,0-0.221,1.325-0.441,2.54c1.435-1.214,1.435-1.214,1.656-2.54
		c0.221-1.214,0.441-2.429,1.987-3.754c-0.221,1.325-0.221,1.325-0.221,1.325c-0.221,1.214-0.221,1.214-0.442,2.429
		c-0.441,2.54-0.883,5.079-1.104,6.294c-0.221,1.325-0.221,1.325-0.221,1.325c0.221-1.325,0.441-2.54,1.877-3.754l0.994,1.214
		c-0.331,2.098-2.981,7.177-5.631,7.177c-0.663,0-1.215-0.331-1.767-0.883c-2.208-1.325-3.533-1.325-6.073-1.325
		c-1.215,0-2.208-1.215-3.533-1.215c-1.988-2.539-3.865-6.293-5.962-8.833c-1.546-4.968-3.423-8.723-3.754-13.801
		c-0.332-4.969-0.773-10.048-1.104-15.016c0.442-2.54-0.331-5.079,0.11-7.619l0.221-1.214c-0.773-2.54-0.11-6.293-0.883-8.833
		c-0.221,1.214-0.442,2.54-0.663,3.754l0.221-1.214c-1.104-1.215-1.104-1.215-0.663-3.754c1.546-1.214,1.546-1.214,1.767-2.539
		c0,0,0,0,0.221-1.215c-0.221,1.215-1.546,1.215-1.546,1.215c-0.663,3.754-2.54,7.508-4.527,11.372
		c-0.663,3.754-2.319,6.294-2.981,10.048c0,0-0.221,1.214-1.545,1.214c-0.663,3.754-1.104,6.293-2.871,8.833c0,0,0,0-0.221,1.214
		l-0.221,1.215h-1.214c0.772,2.54,0.772,2.54-0.663,3.864l0.994,1.215c0,0,0,0,0.221-1.215c0.221-1.325,1.767-2.54,1.987-3.864
		c-0.221,1.325-0.221,1.325,0.994,1.325c0,0-1.436,1.215-0.221,1.215c-1.435,1.325-1.656,2.54-1.656,2.54
		c-0.221,1.214-0.442,2.539-0.773,3.754c-0.221-0.221-0.332-0.331-0.552-0.331c-0.552,0-0.883,1.656-0.883,1.656
		c-0.221,1.215-0.221,1.215,0.994,1.215c0.221-1.215,0.221-1.215,0.221-1.215c-0.221,1.215-0.221,1.215-0.221,1.215
		c-0.221,1.214,0.883,2.54-0.441,2.54c0.221-1.325,0.441-2.54,1.767-2.54c0,0,0,0,0.221-1.215c0.221-1.325,0.221-1.325,0.221-1.325
		l0.221-1.215c0.221-1.325,0.221-1.325,0.442-2.539h1.214h-1.214c0.221-1.215,0.221-1.215,0.441-2.54c1.215,0,1.215,0,1.215,0
		c0.221-1.215,0.221-1.215,0.221-1.215l0.331-1.325c1.436-1.215,1.656-2.429,2.098-4.969c0.221-1.214,0.441-2.54,0.662-3.754
		C227.775,55.757,227.996,54.432,229.321,54.432z M214.857,85.9l0.728,0.267 M130.629,80.5c1.214,0,1.214,0,1.214,0
		S131.843,80.5,130.629,80.5z M215.74,80.821c0.994,1.325,0.773,2.54-0.442,2.54l-0.221,1.325h1.215
		c0.221-1.325,0.221-1.325,1.767-2.54c-1.325,0-1.325,0-1.325,0l0.221-1.325l0.221-1.214l-0.221,1.214
		C215.74,80.821,215.74,80.821,215.74,80.821z M217.286,72.098h1.325C218.611,72.098,218.611,72.098,217.286,72.098z
		 M217.728,77.067c0,0,0,0,1.214,0C217.728,77.067,217.728,77.067,217.728,77.067c1.214,0,0.221-1.214,0.221-1.214L217.728,77.067z
		 M218.5,79.606c-1.325,0,0,0-0.221,1.214C218.5,79.606,218.5,79.606,218.5,79.606z M218.28,80.821
		c0.994,1.325,0.994,1.325,0.773,2.54c0.221-1.214,0.221-1.214,0.441-2.54H218.28z M218.39,73.313c0,0,0,0,0.221-1.215
		C218.39,73.313,218.39,73.313,218.39,73.313z M221.371,70.773l-1.104-1.214c-0.221,1.214-1.436,1.214-1.436,1.214
		c0.994,1.325,0.994,1.325,2.319,1.325l-1.104-1.325C221.371,70.773,221.371,70.773,221.371,70.773z M219.273,68.344
		c-0.221,1.215-0.221,1.215-0.221,1.215S219.053,69.559,219.273,68.344z M222.475,64.48c0.221-1.215,0.663-3.754,2.098-4.969
		c0,0,1.325,0-0.221,1.215c-0.221,1.325-0.221,1.325,0.883,2.539h-1.325l0.221-1.214c0,0-0.221,1.214-1.435,1.214
		c1.214,0,1.214,0,1.214,0L222.475,64.48z M226.781,54.432h-1.325c1.325,0,1.104,1.325,1.104,1.325s0,0-0.221,1.214c0,0,0,0-1.325,0
		h1.325c-0.11,0.663-0.11,0.663-0.11,0.663s0,0-0.11,0.663c-1.325,0-1.325,0-1.546,1.214
		C225.015,56.972,225.236,55.757,226.781,54.432z M225.015,64.48c1.215,0,1.215,0,1.215,0H225.015z M225.457,54.432
		c1.325,0,1.546-1.214,1.546-1.214l-0.221,1.214H225.457z M225.457,62.051c0,0,0,0,0.221-1.325
		C225.457,62.051,225.457,62.051,225.457,62.051z M227.113,59.511h-1.215C225.898,59.511,225.898,59.511,227.113,59.511z
		 M227.444,50.678c-0.221,1.325-0.441,2.54-0.441,2.54S227.223,52.003,227.444,50.678z M229.873,44.385
		c-0.221,1.325-0.221,1.325-0.221,1.325c-0.332,1.214-0.332,1.214-0.552,2.54c0,0,0,0-0.221,1.214c-1.215,0-0.994-1.214-0.994-1.214
		c1.767-2.54,2.429-6.294,4.085-8.833l0.221-1.325c1.325,0,1.104,1.325-0.221,1.325l-0.221,1.214c0,0,0,0-0.221,1.325
		C231.529,41.956,231.308,43.17,229.873,44.385z M229.1,48.25c0,0,0,0-0.221,1.214c0,0,0,0-0.221,1.214
		C228.879,49.464,228.879,49.464,229.1,48.25z M230.536,54.432h-1.215H230.536z M230.867,45.71c-1.214,0-1.214,0-1.214,0
		C230.867,45.71,230.867,45.71,230.867,45.71z M229.983,50.678l-0.221,1.325L229.983,50.678z M231.087,44.385h-1.214H231.087z
		 M230.204,49.464c1.215,0,1.215,0,1.215,0s1.104,1.214-0.221,1.214C231.198,50.678,231.419,49.464,230.204,49.464z M230.977,52.003
		c0,0,0,0,0.221-1.325C230.977,52.003,230.977,52.003,230.977,52.003z M233.186,46.924c-0.221,1.325-0.221,1.325-0.221,1.325
		c-1.325,0-1.325,0-1.104-1.325c-0.994-1.214,0.221-1.214,0.221-1.214c1.325,0,1.546-1.325,1.767-2.54c0,0,0,0-0.221,1.214h1.214
		C233.406,45.71,233.186,46.924,233.186,46.924z M231.529,41.956c0.221-1.325,0.221-1.325,0.221-1.325S231.75,40.631,231.529,41.956
		z M233.848,43.17c-0.221,1.214-0.221,1.214-1.545,1.214c0.221-1.214,0.221-1.214,0.441-2.429
		C232.523,43.17,233.848,43.17,233.848,43.17z M234.069,41.956c-1.325,0-1.325,0-1.325,0H234.069z M238.154,33.123l0.221-1.214
		L238.154,33.123z M239.037,41.956c-0.441,2.429,0.663,3.754,0.442,4.969h-1.325c0.221-1.214,0.442-2.54,0.663-3.754
		C238.816,43.17,238.816,43.17,239.037,41.956z M244.779,73.313c-1.325,0-1.104-1.215-0.883-2.54
		c-0.994-1.214,0.221-1.214-0.773-2.429c0,0,0,0,0.221-1.325c0,0-1.214,0,0,0c0.221-1.215-0.773-2.54-0.331-4.969
		c0.441-2.54-0.552-3.754-0.11-6.293c0,0,0.221-1.325-1.104-1.325l0.221-1.214c0.331-1.214,0.331-1.214,0.331-1.214
		c0.442-2.54,0.663-3.754-0.442-5.079c0.442-2.54-0.331-4.969,0.111-7.508c0.221-1.215,0.441-2.54,0.662-3.754l-0.221,1.215
		l0.221-1.215c-0.994-1.325-0.994-1.325-0.773-2.54c-0.221,1.215-0.221,1.215-0.441,2.54h-1.214l0.221-1.325
		c0.221-1.215,0.441-2.429,0.883-4.969c-1.325,0-1.325,0-1.325,0s0,0-0.221,1.215c-0.221,1.325-0.441,2.539-0.883,5.079
		l-0.221,1.215l-0.221,1.214c0.221-1.214,0.221-1.214,0.221-1.214s0,0,0.221-1.215c-0.221,1.215-0.221,1.215-0.221,1.215
		s0,0-0.221,1.214c0.331,5.079,0.441,11.373,0.662,17.666c-0.441,2.54-0.773,3.754,0.111,6.293
		c-0.221,1.214-0.663,3.754,0.331,4.969c-0.221,1.325-0.663,3.754,1.656,5.079c0,0-0.221,1.215-0.442,2.54l0.994,1.215
		c-0.221,1.214-0.221,1.214-0.221,1.214c0.994,1.325,2.319,1.325,1.987,2.54c-0.221,1.214-0.441,2.54,0.883,2.54
		c0,0,0,0-0.221,1.214c0.221-1.214,0.221-1.214,0.221-1.214c0.221-1.325,0.442-2.54-0.883-2.54c-0.772-2.54-1.545-4.969-1.325-6.293
		c0.221-1.215,0.221-1.215,0.221-1.215c1.214,0,1.214,0,0.994,1.215c0,0,0,0-0.221,1.325
		C243.454,73.313,243.454,73.313,244.779,73.313c-1.546,1.325-1.546,1.325-0.221,1.325
		C244.558,74.638,244.558,74.638,244.779,73.313z M238.706,50.678c-0.221,1.325,1.104,1.325,1.104,1.325h-1.325L238.706,50.678z
		 M239.037,28.044l-0.221,1.325L239.037,28.044z M239.258,40.631c0,0,0,0,0.221-1.214C239.479,39.417,239.479,39.417,239.258,40.631
		z M239.7,59.511c0,0,0,0-0.221,1.215C239.479,60.726,239.479,60.726,239.7,59.511z M241.025,24.29H239.7
		c1.325,0,1.325,0,0.994,1.325C241.025,24.29,241.025,24.29,241.025,24.29z M241.246,36.877c0,0,0,0-1.325,0
		C241.246,36.877,241.246,36.877,241.246,36.877z M240.141,43.17h1.215l-0.221,1.214C241.135,44.385,239.92,44.385,240.141,43.17z
		 M242.019,25.615l-1.546,1.214h1.325C242.019,25.615,242.019,25.615,242.019,25.615z M241.577,41.956
		c-0.994-1.325-0.994-1.325-0.994-1.325h1.214L241.577,41.956z M241.797,54.432h-1.214
		C240.583,54.432,240.583,54.432,241.797,54.432z M240.693,46.924c0.221-1.214,0.221-1.214,0.221-1.214
		S240.914,45.71,240.693,46.924z M241.025,38.091l-0.221,1.325C241.025,38.091,241.025,38.091,241.025,38.091z M242.239,59.511
		c0,0,0,0-0.221,1.215l-1.104-1.215C240.914,59.511,240.914,59.511,242.239,59.511z M242.35,30.583h-1.214
		c-0.221,1.325,0.994,1.325,0.994,1.325L242.35,30.583z M242.46,58.297c-1.325,0-1.325,0-1.325,0S241.135,58.297,242.46,58.297z
		 M241.466,49.464l-0.221,1.214C241.466,49.464,241.466,49.464,241.466,49.464z M241.577,28.044c0,0,0,0-0.221,1.325L241.577,28.044
		z M242.35,79.606c-0.221,1.214-0.221,1.214-0.221,1.214C242.35,79.606,242.35,79.606,242.35,79.606z M245.331,77.067l0.221-1.214
		C245.331,77.067,245.331,77.067,245.331,77.067z M259.353,75.853c0,0-1.214,0-0.994-1.215c-0.221,1.215-0.221,1.215-0.221,1.215
		c-0.221,1.214-0.442,2.54-0.663,3.754C258.912,78.392,257.918,77.067,259.353,75.853z M258.359,88.439l-0.221,1.214L258.359,88.439
		z M263.549,73.313c-0.221,1.325-0.442,2.54-0.663,3.754c0,0,0,0-1.214,0c0.221-1.214,0.221-1.214,0.221-1.214
		c0.221-1.215,0.221-1.215,0.221-1.215c0.442-2.54,0.883-5.079,2.65-7.618c0.11-0.663,0.442-0.883,0.773-0.883
		c0.332,0,0.552,0.221,0.442,0.883c-1.215,0-1.436,1.325-0.442,2.54c-0.221,1.214-1.545,1.214-1.767,2.539
		C263.77,72.098,263.77,72.098,263.549,73.313z M262.003,82.146c0,0,0,0,0.221-1.325c-0.221,1.325,0.994,1.325,0.994,1.325H262.003z
		 M265.205,78.392c0,0-0.221,1.214-1.436,1.214C263.991,78.392,263.991,78.392,265.205,78.392z M263.77,79.606l0.221-1.214
		C263.991,78.392,263.991,78.392,263.77,79.606z M264.763,59.511c-0.221,1.215-0.221,1.215-0.221,1.215
		S264.542,60.726,264.763,59.511z M266.309,58.297c0,0-0.221,1.214-1.546,1.214l0.332-1.214c0.221-1.325,1.656-2.54,2.098-5.079
		C266.751,55.757,266.53,56.972,266.309,58.297z M266.64,63.265c0,0,0,0-0.221,1.215c-1.214,0-1.214,0-1.214,0
		S265.426,63.265,266.64,63.265l0.221-1.214C266.861,62.051,266.861,62.051,266.64,63.265z M265.757,68.344h1.214H265.757z
		 M266.64,63.265l-0.221,1.215L266.64,63.265z M266.751,69.559l0.221-1.215L266.751,69.559z M268.407,60.726c0,0,0,0-1.325,0
		c0,0,0,0,0.221-1.215L268.407,60.726z M267.524,58.297c1.325,0,1.325,0,1.325,0c-0.221,1.214-1.546,1.214-1.546,1.214
		L267.524,58.297z M268.628,52.003h-1.215H268.628z M267.413,65.805l0.221-1.325h1.325C268.959,64.48,268.738,65.805,267.413,65.805
		z M267.524,44.385c0.221-1.214,0.221-1.214,0.221-1.214L267.524,44.385z M269.18,49.464c0,0,0,0-1.325,0
		C269.18,49.464,269.18,49.464,269.18,49.464z M269.401,48.25c0,0,0,0-1.325,0c0.221-1.325,1.546-1.325,1.767-2.54
		C269.622,46.924,269.622,46.924,269.401,48.25z M268.628,59.511c-0.221,1.215-0.221,1.215-0.221,1.215
		S268.407,60.726,268.628,59.511z M269.732,53.218l-0.221,1.214L269.732,53.218z M269.842,45.71
		c0.221-1.325,0.221-1.325,0.221-1.325S270.063,44.385,269.842,45.71z M269.842,59.511c0,0,0,0,0.221-1.214
		C270.063,58.297,270.063,58.297,269.842,59.511z M269.953,52.003c0.221-1.325,0.221-1.325,0.221-1.325
		C269.953,52.003,269.953,52.003,269.953,52.003z M271.609,49.464c-0.221,1.214-0.221,1.214-1.436,1.214
		C270.173,50.678,271.388,50.678,271.609,49.464z M270.284,43.17c0.221-1.215,0.441-2.54,0.441-2.54l0.221-1.214l-0.221,1.214
		c0,0,0,0,1.214,0C271.719,41.956,270.505,41.956,270.284,43.17z M270.395,49.464h1.214H270.395z M271.83,48.25c0,0,0,0-0.221,1.214
		C271.83,48.25,271.83,48.25,271.83,48.25z M271.83,48.25c0.221-1.325,0.221-1.325,0.221-1.325S272.051,46.924,271.83,48.25z
		 M271.83,55.757 M273.596,45.71c0,0-1.325,0-1.545,1.214c0.221-1.214,0.221-1.214,0.221-1.214H273.596z M272.271,45.71
		c-0.221,1.214-0.221,1.214-0.221,1.214L272.271,45.71z M272.161,39.417c0.221-1.325,0.221-1.325,0.221-1.325
		C272.161,39.417,272.161,39.417,272.161,39.417z M272.492,44.385l0.332-1.214C272.824,43.17,272.824,43.17,272.492,44.385z
		 M272.824,35.662c0,0,0,0-0.221,1.215C272.824,35.662,272.824,35.662,272.824,35.662z M273.044,41.956
		c0.221-1.325,0.221-1.325,0.221-1.325C273.044,41.956,273.044,41.956,273.044,41.956z M273.596,31.908
		c-0.331,1.214-0.331,1.214-0.331,1.214L273.596,31.908z M274.038,29.369h1.214l-0.221,1.215c0,0,0,0-1.436,1.325
		c0.221-1.325,0.221-1.325,0.221-1.325L274.038,29.369z M274.811,45.71c0.221-1.325,0.221-1.325,0.221-1.325
		S275.032,44.385,274.811,45.71z M274.921,38.091c0,0,0,0,1.214,0C274.921,38.091,274.921,38.091,274.921,38.091z M275.142,36.877
		l0.221-1.215L275.142,36.877z M275.252,43.17l0.221-1.215L275.252,43.17z M275.473,28.044c0,0,0,0,0.221-1.215
		C275.473,28.044,275.473,28.044,275.473,28.044z M275.915,25.615c-0.221,1.214-0.221,1.214-0.221,1.214
		S275.694,26.829,275.915,25.615z M276.025,31.908c0,0,0,0,1.546-1.325c-0.221,1.325-0.221,1.325-0.221,1.325
		c-0.221,1.214-0.221,1.214-0.221,1.214h-1.325L276.025,31.908z M276.136,24.29c0.221-1.214,0.442-2.429,1.988-3.754
		C277.902,21.861,277.682,23.075,276.136,24.29z M278.124,20.536h-1.325H278.124z M277.461,38.091l0.221-1.214L277.461,38.091z
		 M277.792,29.369c0.221-1.325,0.221-1.325,0.442-2.54C278.013,28.044,278.013,28.044,277.792,29.369z M278.344,19.321
		c0,0,0,0-0.221,1.214L278.344,19.321z M279.89,24.29c-1.436,1.325-1.436,1.325-1.436,1.325l0.221-1.325
		c0,0,0.221-1.214,0.442-2.429c1.435-1.325,1.656-2.54,1.987-3.865c0.221-1.214,0.221-1.214,0.221-1.214
		c1.214,0,0.994,1.214,0.994,1.214l-1.546,1.325l-0.221,1.214c-1.214,0-0.221,1.325-0.441,2.54L279.89,24.29z M278.565,17.996
		c0.221-1.214,0.221-1.214,0.221-1.214S278.786,16.782,278.565,17.996z M278.786,30.583c0,0,0,0,1.215,0
		C280,30.583,280,30.583,278.786,30.583z M280.332,29.369h-1.325C280.332,29.369,280.332,29.369,280.332,29.369z M280.773,26.829
		c0.221-1.214-1.104-1.214,0.221-1.214L280.773,26.829c0,0,0,0-0.221,1.215C280.773,26.829,280.773,26.829,280.773,26.829z
		 M280.773,19.321h1.325C282.098,19.321,282.098,19.321,280.773,19.321z M281.988,13.028l-0.221,1.214
		C281.988,13.028,281.988,13.028,281.988,13.028z"/>
	<path fill="#DDBB4B" d="M291.264,83.663c0-1.104,1.104-1.104,2.208-2.208c0-1.104,1.104-3.422,2.208-4.527h1.104
		c0-1.104,0-1.104,1.104-1.104c-1.104,0-1.104,1.104-1.104,1.104c-1.104,1.104-1.104,2.319-2.208,3.423c0,0,0,1.104-1.104,1.104
		c0,1.104,0,1.104-1.104,2.208c0,0-1.104,1.104-1.104,2.208c-1.104,1.104-2.208,3.313-3.313,4.417c-1.104,0-2.208,1.104-3.423,2.208
		c0,0-0.441,0.441-1.104,0.441c-0.331,0-0.773-0.11-1.104-0.441c-1.104,0-3.313,0-4.417-1.104c0,0-1.104-1.104-2.208-1.104
		c-2.208-2.208-3.313-4.417-3.313-7.729c1.104-3.313,1.104-6.735,2.208-10.048c1.104-1.104,1.104-2.208,2.208-3.312
		c1.104-2.208,2.208-5.521,3.312-7.729c0,0,0,0,0-1.104c1.104-2.208,2.208-3.313,3.313-5.521c1.104-3.312,3.423-6.625,4.527-9.937
		c1.104-1.104,2.208-3.423,4.417-5.631v-1.104c1.104-1.104,1.104-1.104,2.208-1.104c1.104,1.104,2.208,1.104,2.208,1.104
		c0,1.104,0,1.104,1.104,1.104c0,1.104,1.104,1.104,1.104,2.208c1.104,0,1.104,1.215,0,2.319c-1.104,1.104-2.208,3.312-3.313,4.417
		c-1.104,1.104-1.104,2.208-2.208,3.313c0,0,0,0-1.104,1.104l-1.104,1.104h1.104c0,0,0,0,0,1.104c-1.104,0-1.104,1.104-2.208,2.208
		c0,0,0,1.104-1.104,1.104c0,0,0,1.104-1.104,1.104v1.104v-1.104c1.104,2.208,0,3.313-1.104,4.417s-1.104,1.104-1.104,2.208
		c-1.215,0-1.215,0-1.215,1.104c0-1.104,1.215-1.104,1.215-1.104v-1.104c1.104,0,1.104,0,1.104,0
		c-1.104,1.104-1.104,2.208-1.104,3.313c-1.215,0-1.215,0-1.215,0c0-1.104,0-1.104,0-1.104s0,0,0,1.104c0,0-1.104,0,0,0
		c0,1.104,0,1.104,0,1.104c0,1.104-1.104,2.208-1.104,4.416c0,0-1.104,1.104-2.208,1.104c0,0,0,0,0,1.104c0,0,1.104,0,1.104-1.104
		c0,1.104,0,1.104,0,1.104c-1.104,2.208-1.104,4.527-2.208,6.735c0,1.104,0,2.208,0,3.312c1.104-1.104,2.208-2.208,3.313-3.312
		c1.104-1.104,2.319-2.208,3.423-4.527c1.104-1.104,2.208-3.313,3.313-4.417c1.104-1.104,2.208-2.208,3.312-3.312
		c1.104-2.208,2.208-3.313,3.313-5.521c0,0,0,0,1.104,0c-1.104,0-1.104,0-1.104,0c1.104-1.104,2.208-2.208,3.313-3.312
		c0-1.104,1.104-2.208,2.208-3.313c1.104-2.208,3.313-3.313,4.417-4.417c1.104-1.104,2.208-3.313,3.313-4.417
		c0-1.104,1.104-1.104,2.208-2.208c0,0,1.104-1.104,1.104-2.208c1.104,0,2.208-1.104,2.208-1.104
		c2.208-1.104,3.313-2.319,3.313-4.527c0-0.552,0.332-0.883,0.663-0.883c0.441,0,0.994,0.331,1.546,0.883c0,0,1.104,0,2.318-1.104
		h1.104v1.104c0,0,0,0-1.104,0c0,0,0,0,0,1.104c0,0,0,0,1.104,0c0.331-0.332,0.441-0.442,0.441-0.442l-0.441,0.442
		c0,1.104,0,1.104,0,2.319c1.104,0,1.104,1.104,0,1.104c0,1.104-1.104,2.208-1.104,3.312c-1.214,0-1.214,0-1.214,0s-1.104,0,0,0
		v-1.104c-1.104,0-1.104,0-1.104,1.104c0,1.104-1.104,1.104-1.104,2.208c-3.312,5.521-5.521,12.146-7.729,17.666
		c-1.104,3.313-2.208,6.625-2.208,9.937c0,0,0,1.104,0,2.319c0-2.319,0-4.527,1.104-6.735c0-1.104,0-2.208,1.104-3.312
		c0,1.104,0,1.104,0,1.104c0,1.104-1.104,2.208-1.104,2.208c0,2.208,0,4.417,0,5.521c-1.104,1.214-1.104,1.214,0,2.318v1.104
		c0,0,1.104,0,1.104-1.104c2.208-2.318,4.417-4.527,6.625-7.839c0-1.104,1.104-2.208,2.208-3.312c0,0,0-1.104,1.104-1.104
		c1.214-2.208,2.319-3.313,3.423-5.521c0-1.104,1.104-1.104,1.104-1.104c0-1.104,1.104-1.104,1.104-2.208l1.104-1.104
		c1.104-1.104,1.104-1.104,1.104-2.208c2.208-2.208,3.313-3.312,5.521-5.521c0-1.104,1.104-1.104,1.104-2.208h1.104c0,0,0,0-1.104,0
		c0,1.104-1.104,2.208-1.104,3.313c-1.104,0-1.104,1.104-1.104,1.104c-1.104,1.104-2.208,3.312-3.313,4.417l-1.104,1.104
		c0,1.104,0,1.104-1.104,2.208c0,0,0,0,0,1.104c0,0,0,0-1.104,0h1.104c0-1.104,0-1.104,0-1.104h1.104c0-1.104,0-1.104,0-2.208
		c1.104,0,1.104,0,1.104-1.104h1.104c-1.104,1.104-2.208,2.208-2.208,4.417h-1.104v1.104c-1.104,0-1.104,0-1.104,0v1.104
		c-1.104,0,0,1.104-1.104,1.104c0,0-1.104,1.104-1.104,2.208c-1.104,1.104-2.208,3.313-4.527,5.521c0,0,0,0,0,1.104
		c0,0-1.104,1.104-1.104,2.208c-1.104,1.104-1.104,1.104-2.208,2.208c0,1.214,0,1.214,0,1.214s0,0,0-1.214
		c1.104,0,1.104-1.104,2.208-2.208c0,0,0,0,1.104-1.104v1.104c-1.104,2.208-2.208,3.423-3.313,4.527c-1.104,0-1.104,0-1.104,0
		c0.773,0,0.994,0.442,1.104,0.442c0,0,0-0.111,0-0.442c1.104,0,1.104,0,1.104,0s0,0,0,1.104c0,1.104-1.104,1.104-2.208,2.208
		c1.104,0,2.208-1.104,2.208-2.208c1.104,0,1.104,0,1.104-1.104c0,1.104,0,1.104,0,2.208c-1.104,0-1.104,0-1.104,1.104
		c-1.104,2.208-2.208,2.208-3.313,3.313c-1.104,0-3.312,0-4.417,0c-4.417-2.208-6.625-5.521-5.521-10.048
		c0-3.313,0-6.625,1.104-9.937c1.104-2.208,2.208-5.521,3.313-8.833c1.104-2.208,2.208-3.313,3.313-5.521
		c0-2.208,1.104-3.313,2.208-5.521h-1.104c-1.104,1.104-2.208,2.208-3.313,3.313c0,0,0,1.104-1.104,1.104
		c0,1.104-1.104,2.208-2.208,2.208c0,1.104,0,1.104,0,1.104c-1.104,1.104-2.208,1.104-2.208,2.208h-1.104h1.104
		c-1.104,1.104-1.104,1.104-1.104,2.208c-1.104,0-1.104,0-1.104,1.104c-1.104,0-2.208,1.104-2.208,2.208
		c-1.104,0-1.104,1.104-1.104,1.104v1.104c-1.104,1.104-3.313,3.313-4.417,5.521c0,0,0,0-1.104,0v1.104
		c-1.104,1.104-2.208,2.208-2.208,3.313c-1.104,1.104-2.208,2.208-3.313,4.527v1.104v-1.104c1.104-1.214,1.104-1.214,1.104-1.214
		c1.104-1.104,1.104-1.104,1.104-1.104v1.104c0,0-1.104,0-1.104,1.214c0,0,0,0,0,1.104c0,0,0,0,0,1.104h-1.104
		c0,0-1.104,0-1.104,1.104c1.104,0,1.104-1.104,1.104-1.104h1.104c0-1.104,0-1.104,0-1.104l1.104-1.104
		c0,1.104-1.104,1.104-1.104,2.208c0,0,0,1.104-1.104,1.104c0,1.104,0,1.104,0,1.104c-1.104,1.104-1.104,1.104-1.104,2.208
		c-1.104,0-1.104,0-1.104,0c0,1.104,0,1.104-1.104,2.208h1.104c0,0,0,0,0-1.104c1.104,0,1.104,0,1.104,0s0,0,0,1.104
		c0-1.104,0-1.104,0-1.104s1.104,0,1.104-1.104C290.16,84.767,290.16,84.767,291.264,83.663z M284.529,59.261c0,0,0,0,0,1.104
		c-1.104,1.104-1.104,2.208-2.208,3.312c-1.104,4.417-3.313,7.729-4.417,12.146c-1.104,2.208-1.104,4.527-2.208,6.735
		c0,0,0,0,0,1.104c0-1.104,1.104-1.104,1.104-1.104c0-2.208,0-3.313,1.104-5.631c0-1.104,1.104-2.208,1.104-4.417
		c2.208-3.312,3.313-6.625,4.417-9.937C284.529,61.47,284.529,60.366,284.529,59.261c1.215-1.104,2.319-1.104,1.215-3.313
		c1.104,0,2.208,0,1.104-1.104c1.104-1.104,2.208-2.208,2.208-3.312c-1.104,1.104-1.104,2.208-2.208,3.312v1.104
		C285.744,57.053,285.744,58.157,284.529,59.261z M275.696,81.454V80.35V81.454z M275.696,85.871c0-1.104,0-1.104,0-1.104
		S275.696,84.767,275.696,85.871z M276.8,73.615c1.104,0,1.104,1.104,1.104,1.104v-1.104H276.8z M276.8,75.823v1.104V75.823z
		 M279.008,71.407c0,0,0,0-1.104,0v1.104C277.904,72.511,277.904,71.407,279.008,71.407z M277.904,80.35
		c1.104-1.104,1.104-2.318,1.104-4.527c0,2.208-1.104,3.423-1.104,5.631C277.904,80.35,277.904,80.35,277.904,80.35z M280.112,66.99
		c0,1.104,0,1.104,0,1.104s-1.104,0-1.104,1.104c1.104-1.104,1.104-1.104,1.104-1.104S280.112,68.094,280.112,66.99z
		 M280.112,74.719c0,0,0-1.104,0-2.208c1.104-1.104,1.104-2.208,2.208-3.312v-1.104c0,0,0,0,0,1.104c-1.104,0-1.104,0-1.104,0
		c0,2.208-1.104,3.312-2.208,5.521C279.008,74.719,279.008,74.719,280.112,74.719z M282.321,61.47v1.104V61.47z M283.425,66.99
		c-1.104,0-1.104,0-1.104,0v1.104C282.321,66.99,283.425,66.99,283.425,66.99v-1.104c0,0,0,0,0-1.104c1.104,0,1.104,0,1.104,0
		s0,0-1.104-1.104c0,1.104,0,1.104,0,1.104c0,1.104,0,1.104,0,1.104V66.99z M283.425,70.303c-1.104,0-1.104,1.104,0,1.104
		c-1.104,0-1.104,0-1.104,1.104c0,0,0,0,1.104-1.104C283.425,71.407,283.425,71.407,283.425,70.303z M283.425,69.199
		 M284.529,86.975c0,0,0-1.104,1.215-1.104c0,0,0,0-1.215,0V86.975c-1.104,0-1.104,0-1.104,0S283.425,86.975,284.529,86.975z
		 M284.529,61.47h1.215C285.744,61.47,285.744,61.47,284.529,61.47z M285.744,83.663c0,0,0,0,1.104-1.104
		C285.744,83.663,285.744,83.663,285.744,83.663z M286.848,58.157c0,0,0,0,0-1.104C286.848,58.157,286.848,58.157,286.848,58.157z
		 M286.848,59.261v-1.104C286.848,58.157,286.848,58.157,286.848,59.261z M287.952,61.47h-1.104v1.104
		C286.848,62.574,286.848,62.574,287.952,61.47z M287.952,83.663c0,0,0,0,0-1.104c0,1.104-1.104,1.104-1.104,1.104
		S286.848,83.663,287.952,83.663z M287.952,57.053c0,0,0,0,0-1.104C287.952,57.053,287.952,57.053,287.952,57.053z M287.952,80.35
		v1.104C287.952,80.35,287.952,80.35,287.952,80.35z M287.952,85.871c1.104,0,1.104,0,1.104,0S289.056,85.871,287.952,85.871z
		 M289.056,53.741c0,0,0,0,0,1.104V53.741z M289.056,57.053c1.104,0,1.104,0,1.104,0H289.056z M290.16,83.663l-1.104,1.104
		L290.16,83.663z M289.056,84.767c0,1.104,0,1.104,0,1.104S289.056,85.871,289.056,84.767z M290.16,49.324h1.104
		C291.264,49.324,291.264,49.324,290.16,49.324z M291.264,50.428c0,1.104,0,1.104-1.104,1.104c1.104,0,1.104,0,1.104,0V50.428z
		 M290.16,54.845h1.104H290.16z M291.264,83.663h-1.104C290.16,83.663,290.16,83.663,291.264,83.663z M293.472,73.615
		c0,1.104-1.104,2.208-2.208,3.313C292.368,75.823,292.368,74.719,293.472,73.615z M291.264,80.35v-1.104l1.104-1.214
		C292.368,79.246,292.368,79.246,291.264,80.35z M293.472,76.927c-1.104,0-1.104,1.104-1.104,1.104v-1.104H293.472z M292.368,76.927
		c1.104,0,1.104,0,1.104,0H292.368z M293.472,78.032c-1.104,0-1.104,0-1.104,0S292.368,78.032,293.472,78.032z M292.368,80.35h1.104
		c-1.104,0-1.104,0-1.104,1.104C292.368,80.35,292.368,80.35,292.368,80.35z M292.368,80.35h1.104H292.368z M294.577,48.22
		c0,1.104,0,1.104-1.104,1.104c1.104,0,1.104,0,1.104,0V48.22z M295.681,71.407c0-1.104,0-1.104,0-1.104
		C295.681,71.407,295.681,71.407,295.681,71.407c0,1.104-1.104,1.104-2.208,2.208C294.577,72.511,294.577,71.407,295.681,71.407z
		 M293.472,81.454v1.104V81.454z M294.577,74.719c0,0,0,0,0,1.104C294.577,74.719,294.577,74.719,294.577,74.719z M294.577,76.927
		c0,0,0,0,1.104,0H294.577z M296.785,72.511l-1.104,1.104c0-1.104,1.104-1.104,1.104-2.208
		C296.785,72.511,296.785,72.511,296.785,72.511z M295.681,75.823c0,1.104,0,1.104,0,1.104S295.681,76.927,295.681,75.823z
		 M296.785,69.199c0,0,0,0,1.104,0H296.785z M296.785,74.719c1.104-1.104,1.104-1.104,1.104-2.208
		C297.889,73.615,297.889,73.615,296.785,74.719z M298.993,66.99c0,1.104,0,1.104,0,1.104c-1.104,0-1.104,0-1.104,1.104
		c0-2.208,1.104-3.313,2.208-4.417C300.097,65.886,298.993,66.99,298.993,66.99z M297.889,70.303c1.104,0,1.104,0,1.104-1.104v1.104
		C297.889,70.303,297.889,70.303,297.889,70.303s0,0,1.104,0H297.889z M297.889,70.303c0,1.104,0,1.104,0,1.104
		S297.889,71.407,297.889,70.303z M298.993,70.303c0,0,0,0-1.104,0H298.993z M298.993,72.511c0,0,0,0,1.104,0
		c-1.104,1.104-1.104,2.208-2.208,2.208c0,0,0,0,0-1.104c0,0,0,0,1.104,0C298.993,73.615,298.993,73.615,298.993,72.511z
		 M298.993,73.615c-1.104,0-1.104,0-1.104,0S297.889,73.615,298.993,73.615z M298.993,69.199c0,0,0,0,0-1.104h1.104
		C300.097,68.094,300.097,68.094,298.993,69.199z M298.993,69.199c0,0,0,0,0,1.104V69.199z M298.993,71.407
		c1.104,0,1.104,0,1.104-1.104c0,1.104,0,1.104,0,1.104H298.993z M298.993,71.407h1.104
		C298.993,71.407,298.993,71.407,298.993,71.407z M300.097,64.782v-1.104V64.782z M300.097,66.99c1.104,0,1.104-1.104,1.104-1.104
		S301.201,66.99,300.097,66.99z M300.097,68.094c0-1.104,0-1.104,0-1.104S300.097,66.99,300.097,68.094z M300.097,68.094
		c1.104,0,1.104,0,1.104,0S301.201,68.094,300.097,68.094z M300.097,70.303c0-1.104,1.104-1.104,1.104-1.104
		S300.097,69.199,300.097,70.303z M301.201,71.407h-1.104c1.104,0,1.104-1.104,1.104-1.104V71.407z M303.41,68.094
		c-1.104,1.104-1.104,1.104-2.208,2.208C302.305,69.199,302.305,69.199,303.41,68.094z M303.41,62.574c0-1.104,0-1.104-1.104-1.104
		c1.104,0,1.104,0,1.104,0S303.41,61.47,303.41,62.574z M304.514,66.99c0,0,0,0-1.104,0c1.104,0,1.104-1.104,1.104-1.104
		C304.514,66.99,304.514,66.99,304.514,66.99z M304.514,64.782c0,0,0,0,0-1.104C304.514,64.782,304.514,64.782,304.514,64.782z
		 M305.618,62.574c1.104,0,1.104,0,1.104,0S306.722,62.574,305.618,62.574z M306.722,61.47h1.104H306.722z M306.722,73.615
		c0,0,0,0,0,1.104C306.722,74.719,306.722,74.719,306.722,73.615z M315.555,54.845v-1.104c-1.104,0-1.104,0-1.104,1.104v1.104
		l-1.104,1.104v1.104c0,0,0,0-1.104,1.104c0,2.208-1.104,4.417-2.208,6.625c0,1.104-1.104,2.208-1.104,3.313c0,0,0,0,0,1.104v-1.104
		c0,0,0,0,1.104,0c0,0,0,1.104-1.104,1.104c0,2.208,0,3.312,0,4.417c-1.104,2.208-1.104,3.313-1.104,4.527v1.104l1.104-1.104
		c0-1.214,0-3.423,0-5.631c1.104-2.208,1.104-3.312,2.208-5.521c0-2.208,1.104-4.417,2.208-6.625
		c1.104-2.208,2.208-4.417,3.313-6.625c0-1.104,1.104-2.208,1.104-3.312c1.104-1.104,1.104-2.208,2.208-4.417
		c1.104-1.104,1.104-2.208,1.104-3.312c0,1.104-1.104,2.208-1.104,3.312c0,0-1.104,1.104-1.104,2.208
		c-2.208,3.313-3.313,6.625-5.521,9.937c0,0,0,0-1.104,1.104c1.104-1.104,1.104-2.208,1.104-2.208v-1.104l1.104-1.104v-1.104
		C314.451,54.845,314.451,54.845,315.555,54.845z M307.826,60.366c0,1.104,0,1.104,0,1.104S307.826,61.47,307.826,60.366z
		 M307.826,72.511v1.104v1.104v-1.104V72.511z M311.138,65.886c0-1.104,1.104-3.313,1.104-5.521c0,0,0,0,1.104,0
		c-1.104,1.104-1.104,2.208-2.208,3.312c0,1.104,0,2.208-1.104,3.313C310.034,65.886,311.138,65.886,311.138,65.886z M310.034,66.99
		c0,0,0,1.104,0,2.208C310.034,68.094,310.034,66.99,310.034,66.99z M312.243,51.533h-1.104c1.104-1.104,1.104-1.104,1.104-1.104
		C312.243,51.533,312.243,51.533,312.243,51.533z M312.243,68.094c1.104,0,1.104,0,1.104,0H312.243z M313.347,64.782h1.104
		c-1.104,0-1.104,0-1.104,1.104C313.347,64.782,313.347,64.782,313.347,64.782z M315.555,60.366v1.104c0,0,0,0-1.104,0
		C314.451,60.366,314.451,60.366,315.555,60.366z M314.451,63.678c0-1.104,0-1.104,0-1.104s0,0,1.104,0
		C314.451,62.574,314.451,63.678,314.451,63.678z M314.451,84.767c1.104,0,1.104,0,1.104,0S315.555,84.767,314.451,84.767z
		 M316.659,51.533c0,0,0,0-1.104,0H316.659z M315.555,60.366c0-1.104,0-1.104,0-1.104S315.555,59.261,315.555,60.366z
		 M319.971,51.533v1.104c-1.104,1.104-2.208,3.312-2.208,4.417h-1.104c1.104-2.208,1.104-3.313,2.208-4.417v-1.104
		C319.971,51.533,319.971,51.533,319.971,51.533z M316.659,59.261v-1.104C316.659,58.157,316.659,58.157,316.659,59.261z
		 M321.076,50.428h-1.104c0-1.104,1.104-1.104,1.104-1.104c0-1.104,0-1.104,0-1.104v1.104V50.428z M319.971,52.637c0,0,0,0,1.104,0
		C319.971,52.637,319.971,52.637,319.971,52.637z M319.971,78.032c1.104,0,1.104,0,1.104-1.104
		C321.076,78.032,321.076,78.032,319.971,78.032z M321.076,80.35c0,0,0,0-1.104,0C321.076,80.35,321.076,80.35,321.076,80.35z
		 M321.076,48.22h1.104H321.076z M321.076,74.719c1.104-1.104,1.104-1.104,1.104-1.104S322.18,73.615,321.076,74.719z
		 M321.076,79.246c0,0,0,0,0,1.104C321.076,79.246,321.076,79.246,321.076,79.246z M322.18,44.908v1.104V44.908z M322.18,73.615
		c0-1.104,0-1.104,1.214-2.208C323.394,72.511,322.18,72.511,322.18,73.615z M322.18,75.823v-1.104
		C322.18,75.823,322.18,75.823,322.18,75.823z M324.499,66.99c0,1.104,0,1.104-1.104,1.104c1.104,0,1.104,0,1.104,0
		C324.499,66.99,324.499,66.99,324.499,66.99z M325.603,68.094c-1.104,1.104-1.104,2.208-2.208,3.313
		C323.394,70.303,324.499,69.199,325.603,68.094z M324.499,75.823c0,0,0,0-1.104,0C323.394,75.823,323.394,75.823,324.499,75.823z
		 M324.499,73.615c1.104,0,1.104,0,1.104,0c-1.104,0-1.104,0-1.104,1.104C324.499,73.615,324.499,73.615,324.499,73.615z
		 M326.707,63.678c0,0,0,0,0,1.104c-1.104,0-1.104,0-1.104,1.104c0-1.104,0-1.104,0-1.104
		C326.707,63.678,326.707,63.678,326.707,63.678s0,0,0-1.104c1.104,0,1.104,0,1.104,0s0,0-1.104,0
		C326.707,63.678,326.707,63.678,326.707,63.678z M325.603,66.99c1.104,0,1.104,0,1.104-1.104c0,1.104,0,1.104,0,1.104H325.603z
		 M326.707,66.99c-1.104,0-1.104,0-1.104,1.104c0-1.104,0-1.104,0-1.104H326.707z M326.707,69.199v-1.104
		C326.707,68.094,326.707,68.094,326.707,69.199z M327.811,62.574h1.104H327.811z M327.811,63.678c0,1.104,0,1.104,0,1.104
		S327.811,64.782,327.811,63.678z M327.811,63.678h1.104C328.915,63.678,328.915,63.678,327.811,63.678z M330.019,62.574
		c1.104,0,1.104,0,1.104,0S331.123,62.574,330.019,62.574z M332.227,57.053c0,0,0-1.104,1.104-1.104
		C332.227,55.949,332.227,57.053,332.227,57.053z M336.644,50.428c-1.104,2.208-2.208,3.313-3.312,5.521c0-1.104,0-1.104,0-1.104
		c0-1.104,1.104-1.104,1.104-2.208C335.54,51.533,335.54,51.533,336.644,50.428z M338.852,48.22h-1.104
		C338.852,48.22,338.852,48.22,338.852,48.22z M337.748,49.324V48.22C337.748,49.324,337.748,49.324,337.748,49.324z
		 M337.748,50.428v-1.104V50.428z M337.748,49.324v1.104V49.324z M339.956,47.116c0,0,0,0-1.104,0v-1.104
		c1.104,0,1.104,0,2.208-1.104C339.956,46.012,339.956,46.012,339.956,47.116z"/>
	<path fill="#DDBB4B" d="M350.116,75.934c0,1.104-1.104,2.208-2.208,2.208c0,1.104,0,1.104,0,1.104c0,1.214-1.104,1.214-1.104,1.214
		c-1.104,1.104-1.104,1.104-1.104,2.208c-1.104,0-1.104,0-1.104,0h1.104c-1.104,1.104-3.312,3.312-4.416,4.417
		c-1.215,1.104-2.319,2.208-3.423,3.313c1.104,0,1.104-1.104,2.208-1.104c1.215-1.104,1.215-1.104,2.319-2.208
		c1.104-1.104,2.208-2.208,3.312-3.313c0-1.104,1.104-1.104,1.104-1.104v1.104c-1.104,1.104-2.208,2.208-2.208,3.313
		c-1.104,1.104-2.208,1.104-3.312,2.208c-2.319,2.208-3.423,2.208-4.527,3.313h-1.104h1.104c1.104,0,2.208,0,3.313-1.104
		c0,0,1.215,0,1.215-1.104c1.104,0,1.104,0,1.104,0c0-1.104,0-1.104,1.104-1.104c1.104-1.104,2.208-2.208,3.313-3.313
		c0,0,0,0,0,1.104c-1.104,0-2.208,1.104-3.313,2.208c-1.104,1.104-2.208,2.208-3.423,3.313c-1.104,1.214-2.208,2.319-4.417,2.319
		c-0.552,0.552-1.104,0.883-1.767,0.883s-1.546-0.332-2.65-0.883c-1.104,0-2.208,0-3.313-1.104c-1.214,0-3.423-1.214-4.527-2.318
		c-1.104,0-1.104-2.208-2.208-3.313c0,0,0-1.104-1.104-2.208c0-2.208,0-3.312,1.104-5.521v-1.214c0-1.104,0-1.104,0-2.208
		c0,0,0,0,0-1.104c0,0,0-1.104,1.104-2.208c0-1.104,0-3.313,1.104-4.417c0-1.104,1.104-2.208,1.104-4.527
		c1.104-2.208,1.104-3.312,2.208-4.416c0-1.104,0-1.104,0-2.208c0,0,0,0,1.214,0c-1.214,0-1.214,0-1.214,0
		c1.214-1.104,1.214-2.208,1.214-2.208c1.104-1.104,1.104-2.208,2.208-3.422c0-1.104,1.104-3.313,2.208-4.417
		c0-1.104,1.104-2.208,2.208-3.313s1.104-2.208,2.208-3.313c1.104-1.104,2.208-2.318,4.527-3.423c0.772-1.656,2.76-2.65,4.637-2.65
		c0.773,0,1.435,0.11,1.987,0.442c1.104,0,3.313,1.104,4.417,2.208c2.319,1.104,3.423,2.319,3.423,4.527
		c2.208,1.104,1.104,3.313,1.104,5.521c-1.104,1.104-1.104,2.208-2.208,3.312c-1.215,1.104-1.215,1.104-2.319,2.319
		c-1.104,1.104-1.104,2.208-2.208,3.313c0,0,0,0-1.104,0c1.104,1.104,0,1.104-1.104,1.104c0,0,0,0,1.104,0v1.104
		c-1.104,0-1.104,1.104-2.208,1.104c0,1.104,0,1.104-1.104,1.104v1.104h-1.104c1.104,0,0,1.104,0,1.104v1.104
		c-1.104,1.104-2.208,1.104-2.208,2.319c-1.104,1.104-2.319,2.208-2.319,3.313c-1.104,0-2.208,1.104-3.313,2.208
		c-0.331,0.332-0.772,0.442-1.214,0.442c-1.104,0-2.429-0.773-3.202-1.546l-1.104-1.104c-1.104,0-1.104-1.104-1.104-2.208
		c-1.104,2.208-1.104,3.313-2.208,5.521c0,1.104,0,2.208,0,3.312c-1.214,1.104-1.214,2.208-1.214,3.423
		c0,2.208-1.104,3.313-1.104,4.417s0,3.313,1.104,4.417c0,2.208,2.319,2.208,4.527,2.208c2.208-1.104,3.313-2.208,4.417-3.313
		c2.208-2.208,4.417-3.313,6.735-5.521c1.104-2.208,2.208-3.423,4.417-4.527c0-1.104,0-1.104,0-1.104h1.104c0,0,0-1.104,1.104-1.104
		c0-1.104,1.104-2.208,2.208-3.313c0,0,0,0,0,1.104c0-1.104,0-1.104,0-1.104c1.104,0,1.104,0,1.104-1.104h1.104c0,0,0,0,1.215-1.104
		h-1.215c1.215,0,1.215-1.104,1.215-2.208h1.104h1.104c0-1.104,1.104-1.104,1.104-1.104l-1.104,1.104
		c-1.104,1.104-2.208,2.208-2.208,3.313C353.428,72.621,351.22,74.83,350.116,75.934z M330.131,54.845v1.104
		c0,0,0,1.104-1.104,1.104c0,1.104,0,3.313-1.104,4.417c0,1.104-1.214,2.208-1.214,2.208c0,1.104-1.104,2.208-1.104,3.423
		c0,1.104-1.104,2.208-1.104,4.417c0,1.104,0,1.104-1.104,2.208v1.104c0,1.104,0,2.208-1.104,3.313c1.104,1.104,0,2.318,0,2.318
		c0,1.104,0,2.208,0,3.313s0,2.208,0,3.313c0,0,0,0,1.104,0c0-1.104,0-2.208,0-2.208c0-1.104,0-3.312,0-4.417
		c0-1.214,0-1.214,1.104-2.318c0,0,0,0,0-1.104v-1.104c0-1.104,0-1.104,0-2.208v-1.104h1.104h1.104
		c-1.104,1.104-1.104,1.104-1.104,1.104c1.104,1.104,0,1.104,0,1.104c0,1.104,0,1.104,0,2.208c0,1.104-1.104,2.208-1.104,3.423
		c0,0,0,0,0,1.104c1.104-1.104,1.104-1.104,1.104-1.104c0-1.214,0-2.318,0-3.423c0-1.104,1.104-2.208,1.104-3.312
		c0,0,1.214-1.104,0-1.104l1.214-1.104c0,0,0,0,0-1.104s1.104-2.208,1.104-3.313c0-1.214,1.104-1.214,1.104-2.319
		c0-1.104,1.104-2.208,1.104-3.312c0,0,0,0,0-1.104c0,0,1.104,0,1.104-1.104c0-1.104,0-1.104,0-1.104
		c1.104-1.104,1.104-2.208,1.104-3.313h1.104h-1.104c0,0,0,0,0-1.104v-1.214v1.214c0,0,0,0,0,1.104h-1.104c0,1.104,0,1.104,0,1.104
		c-1.104,1.104-1.104,2.208-1.104,3.313c-1.104,0-1.104,1.104-1.104,1.104c-1.104,1.104-1.104,2.208-1.104,3.312
		c-1.104,1.104-1.104,2.208-1.104,2.208v1.214c-1.214,1.104-1.214,1.104-1.214,2.208v1.104c-1.104,0-1.104,1.104-1.104,2.208
		c0-2.208,1.104-4.417,1.104-6.735h1.214c0-1.104,0-2.208,1.104-3.313c0-1.104,0-2.208,1.104-2.208h-1.104
		c1.104-2.208,2.208-3.313,3.312-5.521c0,0,0,0,0-1.104c0,0.331,0,0.441,0,0.441v-0.441c0-1.214,0-1.214,1.104-1.214v-1.104
		c-1.104,0-1.104,0-1.104,0s0,0,0,1.104c-1.104,0-1.104,1.214,0,2.318c-1.104,0-1.104,0-1.104,0s0,1.104-1.104,1.104V54.845
		c1.104,0,1.104,0,1.104,0S331.235,54.845,330.131,54.845z M323.396,80.46h1.104H323.396z M323.396,82.669v-1.104
		C323.396,81.565,323.396,81.565,323.396,82.669z M323.396,82.669v1.104V82.669z M325.604,74.83c0,0,0,0-1.104,0
		C325.604,74.83,325.604,74.83,325.604,74.83z M324.5,75.934v1.104C324.5,75.934,324.5,75.934,324.5,75.934z M324.5,82.669
		c0-1.104,0-1.104,0-1.104V82.669z M325.604,72.621c0,0,0,0,0,1.104C325.604,73.726,325.604,73.726,325.604,72.621z M326.708,70.413
		v1.104c0,0,0,0,0,1.104C325.604,71.517,326.708,71.517,326.708,70.413z M327.922,67.101c0,0,0,0,0-1.214c0,1.214,0,2.318,0,2.318
		l-1.214,1.104C326.708,68.205,327.922,68.205,327.922,67.101z M326.708,69.309v1.104V69.309z M326.708,71.517v-1.104V71.517z
		 M329.027,63.678c0-1.104,0-1.104,0-1.104c1.104-1.104,1.104-1.104,1.104-2.208c0,1.104,0,2.208,0,2.208
		c-1.104,1.104-1.104,2.208-1.104,2.208s0,0,0,1.104c0-1.104,0-1.104,0-1.104V63.678z M329.027,60.366c0,0,0,0,1.104,0H329.027z
		 M340.068,60.366c0,0,0-1.104,1.215-1.104c1.104-2.208,2.208-3.313,3.312-4.417c1.104-2.318,2.208-3.423,3.313-4.527
		s1.104-1.104,1.104-2.208c1.104-1.104,2.208-2.208,3.313-4.417v-1.104c0-1.104,0-2.208-1.104-2.208s-2.208,0-3.313,0
		c-2.208,1.104-3.313,2.208-4.417,3.313c0,1.104-1.104,2.208-2.208,3.312c-1.215,1.104-2.319,2.208-3.423,3.313
		c-1.104,2.208-1.104,3.423-2.208,4.527s-2.208,3.313-2.208,5.521c0,0,0,0-1.104,0v1.104v1.104
		c-1.104,1.104-1.104,2.208-1.104,3.313c0,0-1.104,0-1.104,1.214h1.104h1.104c0,0.552,0.332,0.773,0.552,0.773
		c0.331,0,0.552-0.221,0.552-0.773c2.208,0,3.312-2.319,4.417-3.423C337.86,62.574,338.964,61.47,340.068,60.366c0,0,0,0,0,1.104
		C340.068,60.366,340.068,60.366,340.068,60.366z M331.235,59.261c0-1.104,0-1.104,0-1.104c0,1.104,0,2.208,0,2.208s0,0-1.104,0
		L331.235,59.261z M330.131,61.47c1.104,0,1.104,0,1.104,0S331.235,61.47,330.131,61.47z M332.339,55.949c0,0,0,0,0-1.104h1.104
		c0,1.104-1.104,2.208-2.208,2.208C332.339,57.053,332.339,57.053,332.339,55.949z M331.235,57.053c0,1.104,0,1.104,0,1.104
		S331.235,58.157,331.235,57.053z M333.443,49.214h1.104c0,1.104,0,1.104,0,1.104c0-1.104,0-1.104,0-1.104l1.104-1.104
		c0,0,0-1.104,1.104-1.104c-0.772,0-0.994-0.441-1.104-0.441c0,0,0,0.11,0,0.441c0,1.104-1.104,1.104-1.104,1.104v1.104H333.443z
		 M333.443,54.845h1.104H333.443z M334.547,51.422v1.104V51.422z M334.547,52.526c0,0,0,0,0,1.214
		C334.547,53.741,334.547,53.741,334.547,52.526C335.651,52.526,335.651,52.526,334.547,52.526l1.104-1.104L334.547,52.526z
		 M335.651,92.606c0,0,0,0,0,1.214c-1.104,0-1.104,0-1.104,0c1.104,0,1.104,0,1.104,0V92.606z M335.651,50.318
		c0-1.104,0-1.104,0-1.104s0,0,1.104,0c-1.104,0-1.104,0-1.104,0S335.651,49.214,335.651,50.318z M335.651,50.318c0,0,0,0,1.104,0
		C335.651,50.318,335.651,50.318,335.651,50.318z M336.755,51.422c0,0,0,0-1.104,0C336.755,51.422,336.755,51.422,336.755,51.422z
		 M336.755,44.797v1.104C336.755,44.797,336.755,44.797,336.755,44.797z M337.86,49.214c0,0,0,0,0-1.104
		C337.86,49.214,337.86,49.214,337.86,49.214c-1.104,0-1.104,1.104-1.104,1.104L337.86,49.214z M336.755,51.422h1.104
		C337.86,51.422,337.86,51.422,336.755,51.422z M337.86,43.693v1.104V43.693z M338.964,47.005c0,0,0,0-1.104,0
		C338.964,47.005,338.964,47.005,338.964,47.005z M340.068,42.589c0-1.104,0-1.104,0-1.104S340.068,41.485,340.068,42.589h-1.104
		H340.068z M338.964,42.589c0,1.104,0,1.104,0,1.104S338.964,43.693,338.964,42.589z M341.283,63.678
		c-1.215,1.104-1.215,1.104-1.215,1.104c-1.104,1.104-1.104,1.104-1.104,1.104h1.104v-1.104
		C340.068,64.782,340.068,64.782,341.283,63.678c0-1.104,1.104-1.104,1.104-1.104s0-1.104,1.104-1.104c0-1.104,0-1.104,0-1.104
		c1.104-1.104,2.208-2.208,2.208-3.313c1.104,0,1.104,0,1.104-1.104c0,0,0,0,1.104,0c0-1.104,0-1.104,0-1.104
		c1.104-1.104,2.208-2.318,2.208-3.423h1.104c0-1.104,1.104-2.208,1.104-2.208c0-1.104,1.104-1.104,1.104-1.104
		c-1.104,0-1.104,0-1.104,1.104c-1.104,1.104-1.104,1.104-2.208,2.208c0,0-1.104,2.319-2.208,3.423c0,0,0,0,0,1.104
		c-1.104,0-1.104,0-1.104,0c0,1.104,0,1.104-1.104,1.104c0,1.104,0,1.104,0,1.104c-1.104,1.104-2.208,1.104-2.208,2.208
		c-1.104,1.104-1.104,1.104-1.104,2.208C342.387,62.574,341.283,62.574,341.283,63.678z M340.068,41.485c0,0,0,0,0,1.104
		C340.068,41.485,340.068,41.485,340.068,41.485c1.215,0,1.215,0,1.215,0S341.283,41.485,340.068,41.485z M340.068,67.101
		c1.215,0,1.215,0,1.215-1.214C341.283,67.101,340.068,67.101,340.068,67.101z M342.387,64.782h-1.104c0,1.104,0,1.104,1.104,1.104
		V64.782z M342.387,40.381l1.104-1.214C343.491,39.167,343.491,40.381,342.387,40.381z M343.491,83.773c0,1.104,0,1.104-1.104,1.104
		C343.491,84.877,343.491,84.877,343.491,83.773z M344.595,60.366c-1.104,1.104,0,1.104,0,1.104S344.595,61.47,344.595,60.366z
		 M345.699,61.47h-1.104H345.699z M346.803,59.261c-1.104,1.104-1.104,1.104-1.104,1.104S346.803,60.366,346.803,59.261z
		 M349.011,79.246c-1.104,1.214-2.208,2.319-3.313,3.423c0-1.104,1.104-1.104,1.104-2.208c0,0,1.104,0,1.104-1.214H349.011z
		 M346.803,83.773c0,0,0,0-1.104,0C346.803,83.773,346.803,83.773,346.803,83.773z M346.803,58.157c0,0,0,0,1.104,0H346.803z
		 M350.116,80.46c-1.104,1.104-2.208,1.104-2.208,2.208c-1.104,0-1.104,0-1.104,0l1.104-1.104c0,0,1.104,0,1.104-1.104H350.116z
		 M349.011,80.46l-1.104,1.104C347.907,80.46,349.011,80.46,349.011,80.46z M350.116,54.845h-1.104
		C350.116,54.845,350.116,54.845,350.116,54.845z M349.011,57.053v-1.104V57.053z M351.22,75.934
		c-1.104,1.104-1.104,1.104-2.208,2.208C350.116,77.038,350.116,77.038,351.22,75.934z M350.116,79.246v1.214h-1.104
		C350.116,79.246,350.116,79.246,350.116,79.246z M351.22,53.741c0,0,0,0,0-1.214c0,0,0,0-1.104,1.214
		C351.22,53.741,351.22,53.741,351.22,53.741z M350.116,73.726v1.104V73.726z M350.116,79.246c1.104,0,1.104,0,1.104,0
		S351.22,79.246,350.116,79.246z M351.22,77.038c0,0,1.104,0,1.104-1.104c0,0,0,0,1.104,0c-1.104,1.104-1.104,1.104-1.104,1.104
		H351.22z M351.22,77.038v1.104V77.038z M351.22,79.246v-1.104V79.246z M353.428,47.005v-1.104
		C353.428,47.005,353.428,47.005,353.428,47.005z M353.428,73.726c0-1.104,0-1.104,0-1.104h1.215L353.428,73.726z M354.643,73.726
		c0,0,0,0,0,1.104V73.726c0,1.104,0,1.104,0,1.104h-1.215C354.643,74.83,354.643,74.83,354.643,73.726z M353.428,74.83
		c0,1.104,0,1.104,0,1.104S353.428,75.934,353.428,74.83z M354.643,73.726c0,1.104,0,1.104,0,1.104
		C353.428,73.726,354.643,73.726,354.643,73.726z M354.643,73.726h1.104H354.643z M355.747,72.621c0,0,0,0,0,1.104
		C355.747,72.621,355.747,72.621,355.747,72.621z M355.747,72.621c0,0,0,0,0,1.104C355.747,72.621,355.747,72.621,355.747,72.621z
		 M356.851,72.621c0,0,0,0-1.104,0H356.851z M357.955,70.413c0,0-1.104,0-1.104,1.104C356.851,70.413,357.955,70.413,357.955,70.413
		z M356.851,71.517c0,0,0,0,1.104,0C356.851,71.517,356.851,71.517,356.851,71.517z M359.059,65.886c-1.104,0-1.104,0-1.104,1.214
		C357.955,65.886,357.955,65.886,359.059,65.886z M357.955,68.205c0-1.104,0-1.104,1.104-1.104
		C357.955,67.101,357.955,68.205,357.955,68.205z M357.955,69.309c0,0,0,0,0,1.104C357.955,69.309,357.955,69.309,357.955,69.309z
		 M357.955,71.517v-1.104V71.517z M360.163,64.782h-1.104c1.104,0,1.104-1.104,1.104-1.104V64.782z M359.059,64.782
		c0,1.104,0,1.104,0,1.104S359.059,65.886,359.059,64.782z M359.059,69.309l1.104-1.104
		C360.163,69.309,359.059,69.309,359.059,69.309z M359.059,69.309c0-1.104,0-1.104,0-1.104S359.059,68.205,359.059,69.309z
		 M360.163,68.205h-1.104C359.059,68.205,359.059,68.205,360.163,68.205z M362.371,63.678c0,0,0,0,0,1.104V63.678z M362.371,64.782
		v-1.104V64.782z"/>
	<path fill="#DDBB4B" d="M374.186,69.75c0-0.994,1.104-2.098,1.104-2.098c1.104,0,1.104-1.104,1.104-1.104
		c0-1.104,0-2.098,0.994-2.098v-1.104c1.104,0,1.104,0,1.104-1.104c1.104-1.104,2.208-2.098,2.208-3.202h0.994
		c-0.994,1.104-0.994,2.098-2.098,2.098v1.104h1.104c0-1.104,0-1.104,0.994-2.098c0,0,0-1.104,1.104-1.104v-1.104
		c0-1.104,1.104-1.104,1.104-2.208c0,0,1.104,0,0-0.994c-0.331-0.331-0.331-0.441-0.221-0.441c0.331,0,1.325,0.441,1.325,0.441
		c0-1.104,0.993-1.104,0.993-3.313c0-0.994,0-2.098,1.104-2.098c0,0,0,0,0,1.104c0,0,0,0-1.104,0c1.104,0,1.104,0,1.104,0.994
		c0-0.994,0-0.994,0-0.994s1.104,0,1.104-1.104v1.104c0-1.104,0-1.104,0-1.104s0,0,1.104,0c-1.104,0-1.104,0-1.104,0
		c0-1.104,1.104-1.104,1.104-1.104v-1.104c0,0,0,0,0.994,0c-0.994,0-0.994,0-0.994-0.994c0.994,0,0.994-1.104,2.098-1.104v-1.104
		h-1.104c0-1.104,0-1.104,1.104-1.104c0,0,0,0,1.104,0c0-1.104,0-1.104,0-1.104s0,0,0-0.994h1.104v-1.104c0,0,0-1.104,1.104-1.104
		V37.4h0.994h-0.994l0.994-0.994c0-1.104,1.104-1.104,1.104-1.104s-1.104,0-1.104,1.104c0-1.104,0-1.104,1.104-2.208l1.104-1.104
		c0-0.994,0-0.994,1.104-2.098c0,0,0-1.104,0.993-1.104c0-1.104,0-1.104,1.104-2.098c0,0,1.104,0,2.208,0v0.994
		c-1.104,1.104-2.208,2.208-2.208,3.313c-1.104,0.994-2.098,2.098-2.098,2.098c-1.104,0-1.104,0-1.104,0s0,0,1.104,0
		c-1.104,1.104-2.209,2.208-2.209,3.202c-1.104,0-1.104,0-1.104,0s0,0,1.104,0c-1.104,1.104-1.104,2.208-2.098,3.312
		c0,0,0,0-1.104,0c1.104,0,1.104,0,1.104,0c0,0.994-1.104,0.994-1.104,2.098c0-0.552-0.221-0.883-0.552-0.883
		c-0.221,0-0.552,0.331-0.552,0.883c0,0,0,0,0,1.104s-1.104,1.104-1.104,2.208c-1.104,0.994-1.104,2.098-2.098,3.202
		c-1.104,1.104-1.104,2.098-2.208,3.202c0,1.104-1.104,2.208-2.098,3.202c-1.104,0-1.104,1.104-1.104,1.104s0-1.104,1.104-1.104
		c0,1.104,0,2.208-1.104,2.208c0,1.104,0,1.104-1.104,1.104c0,1.104,0,1.104-1.104,2.098c0,1.104-0.994,1.104-0.994,2.208
		c0,0,0,0-1.104,1.104v0.994c-1.104,1.104-1.104,1.104-1.104,1.104v1.104c-1.104,0-1.104,0-1.104,1.104l-0.994,0.994
		c0,2.208-1.104,3.313-2.208,4.306c-1.104,0,0,1.104-1.104,1.104c0,1.104-1.104,2.208-2.098,3.313c0,2.098-1.104,3.202-2.208,4.306
		c0,0,0,0.994-1.104,2.098c0,0,0,0,0,1.104c0-1.104,0-1.104,0-1.104h1.104c1.104-2.098,2.208-3.202,3.202-5.41
		c1.104-2.098,3.313-4.306,5.41-6.404c0-1.104,0-1.104,0-1.104c-0.994,1.104-0.994,2.098-2.098,3.202
		c-1.104,2.208-2.208,4.306-4.306,6.515v1.104c-1.104,0-1.104,0.994-1.104,0.994c0,1.104-1.104,1.104-1.104,2.208c0,0,0,0,0,1.104
		c1.104-1.104,1.104-2.208,1.104-2.208c1.104,0,1.104-1.104,2.098-2.098c0,0,0,0,1.104,0c0,0-1.104,0-1.104,0.994
		c-0.994,1.104-2.098,3.313-3.202,5.41c-1.104,0-1.104,1.104-2.098,1.104c0,1.104,0,1.104,0,2.098c-1.104,0-1.104,1.104-2.208,1.104
		c0,0.331-0.11,0.442-0.331,0.442c-0.332,0-0.773-0.442-0.773-0.442c-0.994,0-0.994,0-2.098,0c-2.208,0-3.313-1.104-4.306-3.202
		c0-1.104,0-2.208,0-2.208c-1.104-6.404-1.104-12.918,0-18.329c0.994-5.3,2.098-9.606,3.202-14.022
		c1.104-4.306,1.104-8.612,2.208-12.918c0-1.104,0-2.098,0-2.098c0.994-1.104,0.994-1.104,0.994-2.208
		c2.208,0,4.306,1.104,5.41,1.104c1.104,1.104,1.104,2.098,1.104,3.202c-1.104,1.104-1.104,3.312-2.208,4.306
		c0,2.208-0.994,3.313-0.994,4.306c-1.104,0-1.104,0-1.104,0c0,1.104,0,1.104,0,1.104c0,1.104,0,1.104,0,1.104
		c0,1.104,0,1.104,0,1.104c-1.104,0.994-1.104,0.994-1.104,0.994s0,0,0,1.104c0-1.104,1.104-1.104,1.104-1.104s0,0,0-0.994
		c0,0.994,0,0.994,0,2.098c0,0,0,0,0,1.104c-1.104,0-1.104,0-1.104,0s0,0,1.104-1.104c0,1.104,0,1.104,0,1.104
		c0,1.104,0,1.104-1.104,2.208c0,0,0,0-1.104-1.104l1.104-1.104l-1.104,1.104v1.104c0,0.332,0.11,0.442,0.331,0.442
		c0.331,0,0.773-0.442,0.773-0.442c0,0.994,0,3.202,0,4.306c-1.104,2.098-1.104,4.306-1.104,6.404
		c-0.994,2.208-0.994,3.202-0.994,4.306h0.994v-1.104v-0.994v0.994c0,2.208,0,3.313,0,5.41c0,1.104,0,3.313,0,4.306v1.104
		c0,0,1.104,0,1.104-1.104c1.104-2.098,3.202-4.306,4.306-6.404c1.104-1.104,1.104-2.208,2.208-2.208
		C371.977,73.063,371.977,70.854,374.186,69.75c0,0,0,0,0-0.994V69.75z M360.163,75.161c0,0,0,0,1.104,1.104
		c0-1.104,0-1.104,0-1.104H360.163v-1.104v-0.994v0.994V75.161z M360.163,77.369c0,0,0,0,0-1.104V77.369z M361.267,79.467h-1.104
		H361.267z M362.372,67.653c0.994,0,0-1.104,0-1.104s-1.104,0,0-1.104c0,0-1.104,0-1.104-0.994h1.104c-1.104,0-1.104,0-1.104,0
		c0,0.994,0,2.098,0,3.202c0,0,0,0,0,1.104v-1.104C361.267,67.653,361.267,67.653,362.372,67.653c-1.104,0-1.104,0-1.104,0
		C362.372,67.653,362.372,67.653,362.372,67.653z M362.372,67.653c0,0,0,0-1.104,0v-1.104c1.104,0,1.104,0,1.104,0
		S362.372,66.548,362.372,67.653z M361.267,68.757c0,0.994,0,0.994,0,0.994V68.757z M361.267,73.063v-1.104V73.063z M362.372,70.854
		c0-1.104,0-1.104,0-1.104C361.267,69.75,361.267,69.75,362.372,70.854z M363.365,61.138c0-0.994,0-0.994,0-2.098h-0.994
		C362.372,60.145,362.372,61.138,363.365,61.138h-0.994c0,1.104,0,1.104,0,1.104h0.994
		C363.365,61.138,363.365,61.138,363.365,61.138z M362.372,67.653c0,1.104,0,1.104,0,1.104S362.372,68.757,362.372,67.653z
		 M362.372,77.369c0-1.104,0-1.104,0-1.104S362.372,76.265,362.372,77.369z M363.365,77.369c0,1.104-0.994,1.104-0.994,1.104h0.994
		C363.365,78.473,363.365,78.473,363.365,77.369z M364.469,71.959l-1.104,1.104v-1.104c0,0,0,0,0-1.104
		c0-1.104,1.104-1.104,1.104-1.104S363.365,70.854,364.469,71.959z M364.469,66.548c0-1.104,0-2.098,1.104-3.202
		C365.573,64.451,365.573,65.444,364.469,66.548z M364.469,67.653v-1.104V67.653z M364.469,68.757c0,0,0,0,0,0.994
		C364.469,68.757,364.469,68.757,364.469,68.757z M365.573,50.428c1.104,0,1.104,0,1.104,0c0-1.104,0-1.104,0-1.104s0,0,0,1.104
		H365.573z M366.677,60.145h-1.104c0,0,0-1.104,1.104-1.104C366.677,59.041,366.677,59.041,366.677,60.145z M365.573,62.243v1.104
		C365.573,63.347,365.573,63.347,365.573,62.243z M366.677,52.526v-1.104V52.526z M366.677,54.734c0,0,0,0,0.994,0
		C366.677,54.734,366.677,54.734,366.677,54.734z M366.677,57.937c0,1.104,0,1.104,0,1.104S366.677,59.041,366.677,57.937z
		 M367.671,50.428c0-1.104,1.104-1.104,1.104-1.104v1.104H367.671z M368.775,48.22c0-1.104,0-1.104,0-1.104
		C368.775,48.22,368.775,48.22,368.775,48.22z M374.186,71.959h-1.104c0,1.104,0,1.104,0,1.104s0,0,0-1.104
		C374.186,71.959,374.186,71.959,374.186,71.959z M373.082,81.675l1.104-1.104L373.082,81.675z M374.186,69.75v-0.994V69.75z
		 M376.394,77.369c-1.104,1.104-1.104,2.098-2.208,2.098C375.29,78.473,375.29,78.473,376.394,77.369z M374.186,80.571
		c0,0,0,0,0-1.104V80.571z M376.394,77.369c0-1.104,0-1.104,0.994-2.208C377.387,76.265,376.394,76.265,376.394,77.369z
		 M377.387,75.161c0,0,0-1.104,1.104-1.104C377.387,75.161,377.387,75.161,377.387,75.161z M379.596,63.347
		c-1.104,0-1.104,0-1.104,0S378.492,63.347,379.596,63.347c0,0,0,0,0-1.104C379.596,63.347,379.596,63.347,379.596,63.347z
		 M378.492,65.444c0,0,0-0.994,1.104-0.994C378.492,64.451,378.492,64.451,378.492,65.444z M378.492,70.854c0,0,0,0,0-1.104
		C378.492,70.854,378.492,70.854,378.492,70.854z M379.596,71.959c-1.104,0-1.104,1.104-1.104,1.104v-1.104H379.596z
		 M378.492,71.959c1.104,0,1.104,0,1.104,0H378.492z M380.7,62.243c0-1.104,0-1.104-1.104-1.104
		C380.7,61.138,380.7,61.138,380.7,62.243z M381.694,57.937l1.104-1.104L381.694,57.937z M382.797,67.653
		c-1.104,0-1.104,0-1.104,1.104C381.694,67.653,381.694,67.653,382.797,67.653z M382.797,55.728c1.104,0,1.104,0,1.104,0
		S383.902,55.728,382.797,55.728z M382.797,56.833v1.104V56.833z M382.797,65.444c0,0,0,0,1.104,0
		C383.902,65.444,383.902,65.444,382.797,65.444z M382.797,66.548c0,0,0,0,0,1.104C382.797,66.548,382.797,66.548,382.797,66.548z
		 M385.006,52.526c0,0,0,0,0,1.104c-1.104,0,0,0-1.104,0c1.104,0,1.104,0,1.104,0C385.006,52.526,385.006,52.526,385.006,52.526z
		 M385.006,52.526c0,0,0,0,0.993-1.104C385.006,52.526,385.006,52.526,385.006,52.526z M386,62.243
		c-0.993,0-0.993,1.104-0.993,1.104v-1.104H386z M385.006,62.243c0.993,0,0.993,0,0.993,0H385.006z M388.208,48.22
		c0,1.104,0,1.104-1.104,1.104C387.104,48.22,387.104,48.22,388.208,48.22z M388.208,54.734c0-1.104,0-1.104,0-1.104
		S388.208,53.63,388.208,54.734z M389.312,46.122c0,0.994,0,0.994,0,0.994v1.104C388.208,47.116,388.208,47.116,389.312,46.122z
		 M390.306,43.914c0,1.104,0,1.104,0,1.104S390.306,45.018,390.306,43.914z M391.41,43.914v1.104V43.914z M391.41,48.22
		c0,0,0,0,0,1.104C391.41,48.22,391.41,48.22,391.41,48.22z M392.514,41.706c0,0,0,0,0,1.104
		C391.41,41.706,391.41,41.706,392.514,41.706z M392.514,43.914c0-1.104,0-1.104,0-1.104h1.104
		C393.618,42.81,393.618,43.914,392.514,43.914z M392.514,46.122h1.104H392.514z M394.722,43.914c0-1.104,0-1.104,0-1.104
		s0,0,0.994,0C394.722,42.81,394.722,42.81,394.722,43.914z M396.82,41.706h-1.104H396.82z M396.82,41.706c0-0.994,0-0.994,0-0.994
		S396.82,40.712,396.82,41.706z M399.029,36.406c0,0,0.993,0,0.993-1.104C400.022,36.406,399.029,36.406,399.029,36.406z
		 M400.022,30.996V32.1V30.996z M402.23,30.996c0,1.104,0,2.098-1.104,2.098c0,0,0-0.994,1.104-0.994V30.996z M401.126,34.198
		c0,0,0,0,0-1.104V34.198z M402.23,32.1v-1.104h1.104C403.334,30.996,402.23,30.996,402.23,32.1z M404.328,29.892v-1.104
		C404.328,28.788,404.328,28.788,404.328,29.892z"/>
	<path fill="#DDBB4B" d="M435.246,62.463l39.84-11.13c0.993,0,18.421-8.365,17.428-9.358c0.993,0,0.993,0,0.993,0
		c0-0.994,0.994-0.994,2.098-1.988c0,0,0.994,0,0.994-0.994c0,0.994,0,1.988-0.994,1.988c-1.104,0.994-2.445,1.232-3.091,1.987
		C483.085,54,436.24,63.457,435.246,63.457l-0.994,0.994c-1.987,2.098-3.975,3.092-5.962,4.085
		c-2.098,1.987-4.085,2.981-7.066,3.975c0,0.994-0.993,0.994-0.993,0.994h0.993c0.994,0,2.981-0.994,3.975-0.994
		c-0.993,0.994-1.987,0.994-3.975,0.994c0,0.994,0,0.994,0,0.994c-0.993,0-1.987,0-1.987,0.994c-0.994,0-0.994,0.994-2.098,2.098
		c-0.994,0-0.994,0.994-1.987,1.987v0.994c-0.994,0-0.994,0.994-1.987,0.994c0,0.994-0.994,1.987-0.994,1.987
		c-0.994,0.994-1.987,1.987-2.981,4.085c0,0,0,0-0.993,0h0.993c-0.993,0.994-0.993,1.988-1.987,1.988
		c-1.104,0-1.104,0.994-1.104,0.994c-0.994,0-0.994,0-0.994,0c0.994,0,0.994,0,0.994,0c-0.994,0.994-0.994,0.994-1.988,1.987
		c0,0-0.993,0-1.987,0c-0.993,0-1.987,0-2.98,0c-1.988-0.994-3.092-0.994-5.079-1.987c0-0.994-0.994-0.994-1.987-1.987
		c-1.988-0.994-2.981-3.092-2.981-6.073c-0.994-2.981-0.994-7.066,0-10.048c0-2.981,0.993-5.962,1.987-9.054
		c0-0.994,0-0.994,0-1.987c0.994-1.988,1.987-3.975,2.981-6.073c0.993-0.994,0.993-1.987,0.993-2.981
		c0.994-1.987,2.098-3.975,4.086-5.962c0.993-0.994,1.987-2.098,2.98-4.085c0.331-0.331,0.663-0.441,0.994-0.441
		c0.662,0,1.325,0.441,1.987,0.441c0.994,0,0.994,0,2.098,0.994c0.994,0,0.994,0,0.994-0.994c0.993-0.994,0.993-1.987,0.993-3.975
		c0,0,0-0.994,0.994-0.994c0.993,0,2.981,0,3.975-0.994c1.546-0.552,2.761-0.772,4.085-0.772c1.215,0,2.54,0.221,3.976,0.772
		c1.987,0,3.975,0.994,6.072,1.988c0.994,1.987,1.987,3.975,1.987,5.962c0.994,0,0,0,0,0c0,1.104,0,1.104,0,1.104
		c0.994,0,0.994,0,0.994,0.994c-0.994,0-0.994,0-0.994,0c0,0.331,0,0.441,0,0.441c0.11,0,0.331-0.441,0.994-0.441v0.994
		c-0.994,0-0.994,0.994-0.994,1.987s0,1.987,0,1.987c-0.993,0.994-0.993,0.994,0,1.988c-0.993,0.994-0.993,0.994-0.993,0.994
		c0,0.994,0,0.994,0,0.994s0,0,0-0.994c0,0.994,0,0.994,0,2.098c-0.994,0-0.994,0-0.994,0c0.994,0.994,0,0.994,0,1.987
		c-1.104,0.994,0,1.988-2.098,1.988c0,0,0.993,0.994,0,0.994v0.994c0,0,0,0.994-0.994,0.994c-0.993,0-0.993,0.994-0.993,0.994
		c0,0.994-0.994,0.994-0.994,2.098h0.994c0,0-0.994,0-0.994,0.994h-0.993v0.994c0.993-0.994,0.993-0.994,0.993-0.994
		c0.994,0,0.994,0,1.987-0.994c0.994,0,1.987-1.104,3.092-2.098c1.987-0.994,2.981-0.994,3.975-1.987c0,0,0,0,0-0.994
		c0.994,0,0.994,0,1.987-0.994c0,0,0,0,0.994-0.994c0,0.994,0,0.994-0.994,0.994c-0.993,0.994-1.987,1.987-2.98,2.981
		c-0.994,0.994-1.987,1.987-4.086,3.091l1.104,0.994c0.994-0.994,0.994-0.994,1.987-2.098c0,0,0,0,0.994,0l0.993-0.994
		c0.994-0.994,0.994-0.994,0.994-0.994v0.994v-0.994C434.251,63.457,434.251,63.457,435.246,62.463z M389.093,74.499v0.994
		c0-0.994,0-0.994,0.993-0.994C389.093,74.499,389.093,74.499,389.093,74.499z M390.086,71.517c0,0,0,0,0-0.994V71.517z
		 M390.086,77.59c0,0,0,0,0,0.994c0-0.994,0-0.994,0.994-0.994C390.086,77.59,390.086,77.59,390.086,77.59z M393.068,69.53
		c0-1.987,0.994-4.085,0.994-6.073v-0.994v0.994c-0.994,1.987-0.994,3.091-0.994,4.085c-0.993,0.994-0.993,2.981-1.987,3.975
		c0,0.994,0,0.994,0.994,0.994c0,0,0,0,0-0.994c0,0,0-0.994,0.993-0.994V69.53c0,0.994,0,0.994,0,0.994
		C392.075,70.523,392.075,69.53,393.068,69.53z M391.081,75.492v-0.994c0,0,0.994,0,0.994-0.994c0,0,0,0-0.994,0
		c0,0.994,0,0.994,0,0.994V75.492z M391.081,76.486c0,0,0,0,0,1.104C391.081,76.486,391.081,76.486,391.081,76.486z M391.081,80.571
		c0,0,0,0,0-0.994C391.081,80.571,391.081,80.571,391.081,80.571z M393.068,71.517h-0.993H393.068z M400.134,55.397
		c-0.993,1.104-1.987,3.091-1.987,4.085h-0.994c0,0.994,0,1.988-1.104,1.988v0.994c0,0,0,0,1.104-0.994c0,0,0-0.442,0.332-0.442
		c0.11,0,0.331,0.11,0.662,0.442h-0.994v0.994c0,0,0,0,0.994-0.994c0,0.994,0,0.994-0.994,0.994c0,0-1.104,0.994-1.104,1.987
		c0-0.994,0-0.994,0-0.994c-0.994,1.987-0.994,3.091-1.987,5.079c0.993,0,0.993,0,0.993,0c0-0.994,0-3.092,0.994-4.085
		c1.104,0,1.104,0,1.104-0.994c0,0.994,0,0.994,0,0.994v0.994c0,0,0.994,0,0,0c0,1.104,0,1.104,0,2.098c0,0,0,0,0-0.994h-1.104
		c0,0.994,0,0.994,0,1.988v-0.994v-0.994l-0.994,0.994c0,0.994,0,1.987-0.993,3.975c0-0.994,0-0.994,0-0.994
		c0-0.994,0-0.994,0-0.994s0,0,0,0.994c0,0,0,0.994-0.994,1.987v0.994c0.994,0.994,0,0.994,0,1.988s0,0.994,0,2.098
		c0,1.987-0.993,2.981,0,3.975c-0.993,0.994,0,0.994,0,0.994s0,0,0,0.994c0-0.994,0-0.994,0-0.994c0.994,0,0-0.994,0.994-1.988
		c0-0.994,0-2.981,0-4.085c0,1.104,0,2.098,0,3.091c0-0.994,0-1.987,0-1.987c0.993-1.104,0-1.104,0.993-1.104
		c0,1.104,0,2.098,0,3.091c0,0,0,0.994-0.993,0.994v0.994c0,0.994,0,0.994,0,0.994c0,0.994,0,2.981,0.993,3.975
		c0.773,1.546,1.546,2.54,3.092,2.54c0.552,0,1.215-0.221,1.987-0.441c0.994-0.994,2.981-2.098,3.975-3.092
		c0.994-0.994,1.988-1.987,3.092-2.981c1.987-1.988,3.975-3.975,4.969-7.066v0.994c0.994-0.994,0.994-0.994,0-1.987
		c-0.994,0-0.994,0-0.994,0c-0.993,0-0.993-0.994-1.987-0.994c-0.993,0-1.987-0.994-3.091-1.987
		c-0.994-0.994-1.988-1.987-2.981-2.981v-0.994v0.994c-0.994-1.988-0.994-4.085-0.994-5.079v-0.994h0.994
		c-0.994,0-0.994,0-0.994-0.994c0.994,0,0.994-0.994,0-1.988v0.994c0-0.994,0-1.988,0-2.981v-0.994
		c0.994-1.104,0.994-2.098,0.994-2.098c0.993,0,0.993-0.994,0.993-0.994v0.994V53.41c-0.993,0-0.993,0,0,0c0-0.994,0-0.994,0-0.994
		v-0.994c0,0,0,0,0-0.994c0,0,0,0,0,0.994c-0.993,0.994-1.987,1.988-1.987,2.981c-0.993,0-0.993,0.994-0.993,0.994
		c-0.994,1.104-0.994,2.098-1.987,2.098c0.993-0.994,0.993-2.098,1.987-3.091c0-0.994,0.993-1.988,0.993-1.988v-0.994
		c-0.993,0.994-0.993,0.994-0.993,1.988v0.994C400.134,54.403,400.134,55.397,400.134,55.397s0,0-0.993,0H400.134z M394.062,67.542
		l-0.994,0.994h0.994V67.542z M395.055,71.517c0,0.994,0,1.987-0.993,2.981C395.055,73.504,395.055,72.511,395.055,71.517z
		 M394.062,73.504v-0.994C394.062,72.511,394.062,72.511,394.062,73.504z M394.062,74.499c0,0,0.993,0,0.993,0.994
		c-0.993,0-0.993,0-0.993,0C394.062,74.499,394.062,74.499,394.062,74.499z M394.062,84.546c0,0.331,0,0.441,0,0.441V84.546z
		 M396.049,69.53h-0.994c0.994-0.994,0.994-0.994,0.994-0.994S396.049,68.536,396.049,69.53z M395.055,70.523v0.994V70.523z
		 M395.055,75.492c0,0.994,0,0.994,0,0.994S395.055,76.486,395.055,75.492z M397.153,57.495h-1.104H397.153z M396.049,69.53
		c0,0,0,0,0-0.994C396.049,69.53,396.049,69.53,396.049,69.53z M397.153,61.47c0-0.994,0-0.994,0-0.994s0,0,0.994,0.994H397.153z
		 M399.141,61.47c0,0,0,0-0.994,0.994c0-0.994,0-0.994,0.994-1.987C399.141,61.47,399.141,61.47,399.141,61.47z M399.141,59.482
		c0,0,0,0,0,0.994V59.482c0,0,0-0.994,0-1.987C399.141,58.488,399.141,59.482,399.141,59.482z M400.134,59.482
		c-0.993,0-0.993,0.994-0.993,0.994v-0.994H400.134z M400.134,59.482c0,0,0,0-0.993,0H400.134z M400.134,58.488
		c0,0.994,0,0.994,0,0.994S400.134,59.482,400.134,58.488z M402.122,60.476c0,0,0,0,0-0.994V60.476z M404.109,49.435
		c-0.993,0-0.993,0.994-0.993,0.994s0,0,0,0.994c0-0.994,0-0.994,0-0.994S403.116,49.435,404.109,49.435z M404.109,57.495
		c0,0.994-0.993,0.994-0.993,0.994h0.993C404.109,57.495,404.109,57.495,404.109,57.495z M403.116,91.612c0,0.994,0,0.994,0,0.994
		C403.116,91.612,403.116,91.612,403.116,91.612h0.993H403.116z M405.103,56.501c-0.994,0.994-0.994,0.994-0.994,0.994
		s0.994,0,0.994,0.994c0-0.994,0-0.994,0-0.994S405.103,57.495,405.103,56.501z M404.109,56.501v0.994V56.501z M404.109,58.488
		v0.994c0,0,0,0,0.994,0C404.109,59.482,404.109,58.488,404.109,58.488z M404.109,61.47c0.994,0,0.994,0,0.994,0
		C404.109,61.47,404.109,61.47,404.109,61.47c0-0.994,0-0.994,0-0.994S404.109,60.476,404.109,61.47z M405.103,52.416
		c0-0.994,0.994-1.987,0.994-1.987c0-0.994,0-0.994,0-1.987c0,0.994,0,0.994,0,0.994C405.103,50.428,405.103,51.422,405.103,52.416
		c-0.994,0,0,0,0,0.994C405.103,52.416,405.103,52.416,405.103,52.416z M406.097,53.41h-0.994l0.994-0.994c-0.994,0-0.994,0-0.994,0
		c0,0.994,0,0.994,0,0.994H406.097z M405.103,55.397c0.994,0,0.994,0,0.994,0C405.103,55.397,405.103,55.397,405.103,55.397z
		 M407.201,89.625l0.994-0.994c-0.994,0-2.098,0-3.092,0.994C406.097,89.625,407.201,89.625,407.201,89.625z M417.138,68.536
		c1.104-0.994,1.104-0.994,1.104-0.994c0-0.994,0.994-0.994,0-0.994c0.994-1.104,0.994-1.104,0.994-2.098
		c0.994-0.994,0.994-0.994,1.987-1.987c0.994-0.994,0.994-0.994,0.994-0.994s0.993,0,0-0.994c0,0,0-0.994,0.993-0.994
		c0,0,0,0,0.994,0c0,0,0-0.994-0.994-0.994v0.994c0-0.994,0-0.994,0-1.987c0.994-2.098,1.987-4.085,1.987-6.073
		c0.994-1.987,0.994-2.981,0.994-3.975c0-1.987,0-3.092,0-5.079c-0.994,0-0.994-0.994-0.994-1.987c-0.993,0-0.993,0-1.987,0
		c-0.772-0.442-1.767-0.663-2.76-0.663c-1.325,0-2.65,0.442-3.313,1.656c0,0.994,0,0.994,0,0.994
		c-1.987,0.994-2.981,1.987-3.975,4.085c-0.994,0.994-0.994,1.987-1.988,2.981c0,0,0,0.994-0.993,0.994c0-0.994,0-0.994,0-1.987
		c0,0.994-0.994,0.994-0.994,1.987l-0.993,0.994c0.993,0,0.993-0.994,0.993-0.994c0,0.994,0,0.994,0,0.994l-0.993,0.994
		c0.993,0.994,0,0.994,0,0.994c-0.994,0.994-0.994,0.994-0.994,0.994c0,0.994,0,0.994,0.994,0.994c-0.994,0-0.994,0-0.994,0
		c0,1.104,0,2.098,0,2.098c-1.104,0.994-1.104,2.981-1.104,3.975v0.994c0,0,0,0,1.104,0c0-0.994,0-1.987,0-2.981
		c0-0.994,0-0.994,0.994-0.994c-0.994,0-0.994,0.994-0.994,0.994c0,0.994,0,0.994,0,0.994c0.994,0,0.994,0,0.994,0.994
		c-0.994,0.994-0.994,0.994-0.994,1.987c0,3.091,0.994,6.073,3.975,8.06c0.663,0,1.767,0.442,2.761,0.442
		C415.261,71.959,417.138,69.75,417.138,68.536c0,0,0,0,1.104,0c-1.104,0.994-1.104,0.994-1.104,0.994s1.104,0,1.104-0.994
		C417.138,68.536,417.138,68.536,417.138,68.536z M407.201,48.441c0,0,0,0-1.104,0C407.201,48.441,407.201,48.441,407.201,48.441z
		 M407.201,90.619c0,0,0,0,0-0.994C407.201,90.619,407.201,90.619,407.201,90.619z M408.195,57.495c0,0,0,0,0,0.994
		C407.201,57.495,407.201,57.495,408.195,57.495z M408.195,52.416c0,0,0,0,0,0.994C408.195,52.416,408.195,52.416,408.195,52.416z
		 M408.195,56.501c0,0,0,0,0-1.104C408.195,55.397,408.195,55.397,408.195,56.501z M408.195,60.476c0,0,0,0,0,0.994
		C408.195,60.476,408.195,60.476,408.195,60.476z M410.182,50.428c0,0,0,0,0,0.994c-0.994-0.994-0.994-0.994-0.994-0.994H410.182z
		 M409.188,52.416c0-0.994,0-0.994,0-0.994S409.188,51.422,409.188,52.416z M410.182,53.41c0,0,0,0-0.994,0v-0.994v0.994H410.182z
		 M409.188,54.403V53.41V54.403z M409.188,87.637c0,0,0,0,0.994,0C409.188,87.637,409.188,87.637,409.188,87.637z M410.182,87.637
		v-1.104V87.637z M411.175,86.533c0,0,0,0-0.993,0C411.175,86.533,411.175,86.533,411.175,86.533z M411.175,85.54h0.994H411.175z
		 M413.164,84.546c-0.994,0-0.994,0-0.994,0C413.164,84.546,413.164,84.546,413.164,84.546z M413.164,78.583c0,0,0,0,0.993-0.994
		C413.164,78.583,413.164,78.583,413.164,78.583z M415.151,75.492c-0.994,0.994-0.994,0.994-0.994,0.994c0,1.104,0,1.104,0,1.104
		c0.994,0,0.994,0,0.994,0v-1.104c0,0,0-0.994,0.993-0.994C415.151,75.492,415.151,75.492,415.151,75.492z M414.157,75.492v0.994
		V75.492z M423.21,64.451c0.994-1.987,1.987-2.981,1.987-3.975c0.994-0.994,0.994-0.994,0.994-1.988c0.993,0,0,0,0.993,0
		c-1.877,0-1.987,0.111-1.987,1.988c0,0,0,0-0.993,0c0.993-0.994,1.987-1.988,1.987-2.981s0.993-2.098,0.993-3.091
		c0,0.994,0,0.994-0.993,0.994c0,1.104,0,1.104,0,1.104c-0.994,0.994-0.994,1.987-0.994,1.987c-0.993,1.988-1.987,2.981-2.98,4.969
		c0,0.994-0.994,1.987,0,1.987c0,1.104-0.994,1.104-0.994,1.104s0,0,0-1.104c-0.993,1.104-1.987,3.092-1.987,4.085h-0.994v0.994
		h0.994c0-0.994,0.994-0.994,1.987-1.987c0-0.994,0-0.994,0.994-1.988C423.21,65.444,423.21,65.444,423.21,64.451z M419.236,75.492
		c0,0,0,0,0.994,0C419.236,75.492,419.236,75.492,419.236,75.492z M420.23,64.451v0.994V64.451z M420.23,67.542v0.994V67.542z
		 M421.002,74.94c-0.331,0-0.772-0.441-0.772-0.441h0.993C421.223,74.83,421.113,74.94,421.002,74.94z M420.23,75.492v-0.994
		C420.23,74.499,420.23,74.499,420.23,75.492z M422.217,60.476v0.994V60.476z M423.21,64.451h-0.993H423.21z M423.21,60.476v0.994
		C423.21,60.476,423.21,60.476,423.21,60.476z M423.21,62.463c0.994,0,0.994,0,0.994,0C423.21,62.463,423.21,62.463,423.21,62.463
		v0.994C423.21,63.457,423.21,63.457,423.21,62.463z M423.21,63.457c0,0,0,0,0,0.994C423.21,63.457,423.21,63.457,423.21,63.457z
		 M424.205,56.501v0.994C424.205,56.501,424.205,56.501,424.205,56.501z M424.205,61.47c0,0,0,0,0-0.994
		C424.205,61.47,424.205,61.47,424.205,61.47z M425.198,64.451c-0.993,0-0.993,0-0.993,0H425.198z M424.205,66.548c0,0,0,0,0-1.104
		C424.205,66.548,424.205,66.548,424.205,66.548z M425.198,68.536c-0.993,0-0.993,0-0.993,0H425.198z M425.198,57.495
		c0,0,0,0,0-0.994C425.198,57.495,425.198,57.495,425.198,57.495z M425.198,63.457c0,0.994,0,0.994,0,0.994
		S425.198,64.451,425.198,63.457z M426.192,71.517c0,0.994-0.994,0.994-0.994,0.994L426.192,71.517z M426.192,67.542
		c0,0,0.441,0.441,0.772,0.441c0.11,0,0.221-0.11,0.221-0.441C426.192,67.542,426.192,67.542,426.192,67.542z M427.185,71.517
		c-0.993,0-0.993,0-0.993,0S426.192,71.517,427.185,71.517z M428.29,70.523l-1.104,0.994L428.29,70.523z M428.29,49.435
		c0,0,0,0,0,0.994V49.435z M428.29,52.416c0-0.994,0-0.994,0-1.987C428.29,51.422,428.29,51.422,428.29,52.416z M428.29,61.47
		c0,0,0,0,0,0.994C428.29,61.47,428.29,61.47,428.29,61.47z M429.284,70.523c-0.994,0-0.994,0-0.994,0S428.29,70.523,429.284,70.523
		z M429.284,56.501c0.993,0,0.993,0,0.993,0H429.284z M429.284,70.523c0-0.994,0-0.994,0-0.994S429.284,69.53,429.284,70.523z
		 M430.277,43.362c0,0,0,0,0,0.994V43.362z M430.277,48.441c0.994,0,0.994,0,0.994,0H430.277z M430.277,52.416
		c0-0.994,0-0.994,0-0.994S430.277,51.422,430.277,52.416z M432.264,68.536c-0.993,0-0.993,0-1.987,0
		C431.271,68.536,431.271,68.536,432.264,68.536z M431.271,51.422c0,0,0,0,0,0.994C431.271,51.422,431.271,51.422,431.271,51.422z
		 M492.513,39.987l-19.261,13.346c0,0,19.261-13.346,19.261-14.34c0,0,0,0.994,0.993,0.994
		C492.513,39.987,492.513,39.987,492.513,39.987z M492.513,41.975l-6.928,5.358C486.58,47.333,492.513,41.975,492.513,41.975z
		 M435.246,61.47v0.994V61.47z M492.513,41.975h0.993H492.513z M494.5,38c0,0,0,0.994-0.994,0.994C494.5,38.994,494.5,38,494.5,38z
		 M493.506,38.994c0,0,0,0,0,0.994C493.506,38.994,493.506,38.994,493.506,38.994z M494.5,38c1.104,0,1.104,0,1.104,0
		S495.604,38,494.5,38z M495.604,38.994H494.5H495.604z M495.604,38v-0.994V38z M497.591,38.994h-0.993
		C497.591,38,497.591,38,498.585,38C498.585,38.994,497.591,38.994,497.591,38.994z M499.248,37.448c-0.11,0-0.331-0.11-0.662-0.442
		c0.994,0,0.994,0,0.994,0S499.58,37.448,499.248,37.448z M498.585,37.006c0,0.994,0,0.994,0,0.994S498.585,38,498.585,37.006z
		 M500.573,35.902c0,1.104-0.993,1.104-0.993,1.104C499.58,35.902,499.58,35.902,500.573,35.902z"/>
</g>
<g>
	<g>
		<path fill="#DDBB4B" d="M101.918,69.5c3.225,0,3.225-5,0-5S98.694,69.5,101.918,69.5L101.918,69.5z"/>
		<path fill="#DDBB4B" d="M72.418,60.5c3.225,0,3.225-5,0-5S69.194,60.5,72.418,60.5L72.418,60.5z"/>
		<path fill="#DDBB4B" d="M40.918,72.5c3.225,0,3.225-5,0-5S37.694,72.5,40.918,72.5L40.918,72.5z"/>
		<path fill="#DDBB4B" d="M2.418,88.5c3.225,0,3.225-5,0-5S-0.806,88.5,2.418,88.5L2.418,88.5z"/>
	</g>
</g>
<g>
	<g>
		<path fill="#DDBB4B" d="M614.918,14c3.225,0,3.225-5,0-5S611.694,14,614.918,14L614.918,14z"/>
		<path fill="#DDBB4B" d="M585.418,5c3.225,0,3.225-5,0-5S582.194,5,585.418,5L585.418,5z"/>
		<path fill="#DDBB4B" d="M553.918,17c3.225,0,3.225-5,0-5S550.694,17,553.918,17L553.918,17z"/>
		<path fill="#DDBB4B" d="M515.418,33c3.225,0,3.225-5,0-5S512.194,33,515.418,33L515.418,33z"/>
	</g>
</g>
</svg>
