<?xml version="1.0" encoding="utf-8"?>
<!-- Generator: Adobe Illustrator 16.0.3, SVG Export Plug-In . SVG Version: 6.00 Build 0)  -->
<!DOCTYPE svg PUBLIC "-//W3C//DTD SVG 1.1//EN" "http://www.w3.org/Graphics/SVG/1.1/DTD/svg11.dtd">
<svg version="1.1" id="Capa_1" xmlns="http://www.w3.org/2000/svg" xmlns:xlink="http://www.w3.org/1999/xlink" x="0px" y="0px"
	 width="595.279px" height="841.891px" viewBox="0 0 595.279 841.891" enable-background="new 0 0 595.279 841.891"
	 xml:space="preserve">
<g>
	<g>
		<path fill="#FFFFFF" d="M547.515,514.038c-36.445,0-72.23-5.7-106.142-16.906c-16.616-5.668-37.043-0.469-47.185,9.947
			l-66.934,50.527c-77.623-41.436-125.438-89.234-166.308-166.275l49.041-65.189c12.741-12.724,17.311-31.311,11.836-48.751
			c-11.255-34.089-16.972-69.857-16.972-106.318c0.001-26.34-21.428-47.769-47.766-47.769H47.767
			C21.429,123.305,0,144.733,0,171.071c0,301.903,245.611,547.514,547.515,547.514c26.338,0,47.767-21.429,47.767-47.767V561.804
			C595.28,535.467,573.852,514.038,547.515,514.038z"/>
	</g>
</g>
</svg>
