<?xml version="1.0" encoding="utf-8"?>
<!-- Generator: Adobe Illustrator 16.0.3, SVG Export Plug-In . SVG Version: 6.00 Build 0)  -->
<!DOCTYPE svg PUBLIC "-//W3C//DTD SVG 1.1//EN" "http://www.w3.org/Graphics/SVG/1.1/DTD/svg11.dtd">
<svg version="1.1" id="Capa_1" xmlns="http://www.w3.org/2000/svg" xmlns:xlink="http://www.w3.org/1999/xlink" x="0px" y="0px"
	 width="595.279px" height="182.96px" viewBox="0 330.598 595.279 182.96" enable-background="new 0 330.598 595.279 182.96"
	 xml:space="preserve">
<g>
	<path fill="#FEFEFE" d="M298.6,513.49c-84,0-168-0.014-252,0.068c-2.465,0.002-2.953-0.482-2.949-2.947
		c0.09-59.041,0.09-118.081,0-177.121c-0.003-2.465,0.484-2.949,2.949-2.948c168,0.075,336,0.075,504,0
		c2.465-0.001,2.953,0.483,2.949,2.948c-0.09,59.04-0.09,118.08,0,177.121c0.004,2.465-0.484,2.949-2.949,2.947
		C466.6,513.476,382.6,513.49,298.6,513.49z"/>
	<path fill="#669898" d="M435.877,438.246c-3.737,3.047-7.339,5.084-8.314,9.898c-0.867,4.283-4.053,7.465-7.331,10.311
		c-2.485,2.158-8.229,1.002-9.724-1.967c-0.582-1.158-0.471-2.289,0.549-3.268c1.557-1.496,2.813-3.52,4.641-4.479
		c4.638-2.436,4.107-6.521,3.797-10.48c-0.229-2.916-0.906-5.816-1.621-8.668c-0.225-0.896-0.533-2.289-1.865-2.346
		c-1.049-0.043-1.702,0.922-2.088,1.754c-2.687,5.793-4.909,11.713-5.174,18.217c-0.614,15.189,2.265,30.258,1.521,45.459
		c-0.113,2.334-0.329,4.547-2.557,5.396c-2.262,0.861-4.634,0.455-6.682-1.275c-3.62-3.059-5.697-6.346-5.379-11.607
		c0.777-12.85-0.274-25.664-2.685-38.342c-0.154-0.811,0.011-1.68-0.063-2.514c-0.057-0.65,0.297-1.445-0.859-2.131
		c-2.479,6.074-5.329,11.9-9.176,17.164c-2.413,3.303-5.272,6.26-8.539,8.627c-4.425,3.207-14.965,2.039-19.924-2.732
		c-4.726-4.545-6.018-6.607-9.88-16.484c-1.567,2.191-2.51,4.545-4.369,6.316c-4.983,4.752-10.943,4.902-15.979,0.064
		c-1.972-1.896-4.104-3.676-5.432-6.141c-1.273-2.365-2.49-4.76-3.791-7.252c-1.406,2.523-2.176,5.469-4.898,6.934
		c-2.697,1.453-5.646,0.658-8.463,0.641c-2.987-0.018-7.533-4.377-7.883-7.773c-0.936-9.066,0.255-17.559,7.627-24.079
		c4.056-3.586,9.023-3.427,12.271,0.456c0.791,0.946,1.203,1.985,0.58,2.91c-0.721,1.068-1.685,0.127-2.531-0.213
		c-5.064-2.029-7.702-0.264-8.81,5.343c-1.132,5.729-0.977,11.307,0.835,16.834c0.481,1.467,1.084,3.32,2.688,3.486
		c1.799,0.189,2.343-1.828,2.932-3.174c2.984-6.814,5.009-13.939,6.611-21.199c0.613-2.77,1.764-5.278,3.598-7.592
		c2.075-2.618,4.688-2.618,7.414-2.297c2.246,0.265,2.648,2.208,2.605,4.045c-0.198,8.731,1.204,17.407,0.791,26.151
		c-0.157,3.313,0.562,6.604,1.633,9.732c1.027,3.006,2.643,3.436,4.487,0.859c3.468-4.834,7.065-9.721,6.814-16.215
		c-0.503-13.004,0.188-25.94,4.402-38.348c2.049-6.033,2.878-12.678,7.716-17.585c2.57-2.608,5.66-2.708,8.067-0.943
		c4.831,3.541,8.572,7.732,8.745,14.637c0.292,11.627-3.337,21.739-9.117,31.556c-1.34,2.275-0.738,6.004-0.305,8.955
		c1.298,8.844,2.574,17.709,5.63,26.189c1.54,4.275,3.436,4.838,6.563,1.586c6.096-6.332,9.112-14.457,13.054-22.102
		c3.276-6.355,2.901-12.459,1.319-18.875c-1.196-4.856,5.836-10.639,10.942-8.819c1.398,0.498,2.354,1.746,2.827,3.432
		c1.3,4.642,2.997,9.168,3.545,14.006c0.086,0.768,0.566,1.49,0.905,2.336c3.104-7.473,5.454-9.037,12.491-8.426
		c5.338,0.465,7.991,4.203,10.187,14.754c2.4-2.713,5.278-4.219,6.245-8.041c2.082-8.229,8.275-13.086,15.627-16.398
		c2.264-1.021,5.337-1.405,6.361,2.304c0.274,0.995,0.976,0.877,1.683,0.799c4.822-0.532,6.735,0.309,8.272,4.383
		c1.617,4.287,3.467,8.584,2.98,13.365c-0.241,2.371,0.645,2.852,2.938,2.186c3.001-0.875,4.89-3.23,7.338-4.822
		c0.736-0.48,0.52-1.195,0.265-1.902c-0.439-1.219-0.823-2.457-1.221-3.691c-1.769-5.498-0.513-7.406,5.243-7.973
		c6.707-0.66,7.411-0.12,9.303,6.665c0.439,1.582,1.45,3.031,1.311,4.744c-0.142,1.734,0.427,3.256,1.095,4.805
		c1.439-2.416,1.146-5.061,1.067-7.637c-0.148-5.064,1.295-9.626,4.579-13.419c2.916-3.369,8.319-3.236,11.695-0.164
		c4.872,4.436,6.549,10.316,7.47,16.478c0.896,5.982,1.906,11.963,1.562,18.082c-0.078,1.408,0.239,3.648,1.706,3.982
		c1.769,0.4,2.666-1.555,3.432-3.045c3.08-5.994,6.394-11.902,8.355-18.379c0.654-2.156,1.997-2.357,3.505-1.904
		c1.663,0.498,0.896,1.852,0.438,2.939c-3.197,7.59-5.663,15.578-11.656,21.656c-3.44,3.488-8.49,3.508-12.32,0.154
		c-2.592-2.268-4.071-5.152-5.143-8.373c-2.8-8.416-3.736-17.064-3.533-25.884c0.037-1.595,0.551-3.76-1.71-4.042
		c-2.248-0.281-2.094,2.047-2.688,3.485c-1.211,2.919-0.785,6.07-1.229,9.095c-1.271,8.646-0.962,17.412-0.768,26.129
		c0.074,3.303-0.847,4.51-4.246,4.293c-4.534-0.291-7.256-2.08-8.729-6.406c-1.59-4.676-3.304-9.311-4.796-14.016
		c-0.493-1.559-0.914-1.588-2.575-1.428c-3.978,0.387-6.821,3.236-10.506,4.129c-0.904,0.217-0.844,1.297-0.914,2.158
		c-0.317,3.945-1.728,7.549-3.797,10.861c-2.337,3.744-6.188,4.682-10.026,3.799c-8.377-1.92-15.275-6.197-19.538-14.063
		C436.424,442.25,436.12,440.574,435.877,438.246z"/>
	<path fill="#669898" d="M250.487,413.148c-0.468,10.72-0.25,20.658,0.72,30.517c0.628,6.389,1.824,12.834,4.633,18.76
		c0.967,2.037,2.243,4.24,4.816,4.188c3.249-0.07,4.869-2.805,6.26-5.199c4.046-6.979,6.354-14.672,8.596-22.363
		c1.248-4.283,2.256-8.635,3.436-12.938c0.663-2.418,0.126-3.521-2.667-3.393c-4.188,0.193-8.394,0.059-12.591,0.045
		c-1.053-0.004-2.299,0.295-2.923-0.855c-0.737-1.365,0.759-1.791,1.333-2.583c2.213-3.063,5.125-4.25,8.954-3.798
		c6.569,0.774,12.923-2.104,19.512-1.376c0.975,0.106,2.28-0.626,2.854,0.704c0.474,1.101-0.894,1.611-1.118,2.421
		c-0.906,3.265-2.814,5.142-6.261,5.537c-1.892,0.215-1.138,1.908-1.072,2.891c0.595,8.99-0.785,17.797-3.07,26.383
		c-1.611,6.061-3.764,11.961-8.139,16.967c-4.165,4.766-9.267,4.85-14.356,3.801c-6.068-1.248-11.156-4.75-15.866-8.928
		c-14.643-12.984-21.809-30.117-25.146-48.542c-1.716-9.474-1.459-19.708,0.694-29.567c1.978-9.054,4.295-17.999,9.763-25.555
		c3.889-5.374,8.434-10.679,14.918-12.951c10.921-3.826,25.574-2.438,32.413,8.738c3.361,5.492,3.321,11.546,2.851,17.585
		c-0.188,2.429-2.535,2.417-4.531,2.345c-1.996-0.07-3.018-1.014-3.278-3.016c-0.215-1.638,0.36-3.13,0.931-4.49
		c0.851-2.023,0.808-4.119,0.384-5.984c-0.635-2.781-1.273-6.038-4.924-6.645c-4.008-0.667-6.439,0.815-8.706,4.582
		c-3.539,5.884-5.084,12.452-6.303,19.036C250.496,390.841,249.717,402.358,250.487,413.148z"/>
	<path fill="#669898" d="M92.611,386.813c-5.678-1.757-10.767-4.055-14.622-8.587c-3.104-3.647-3.517-7.826-1.91-12.001
		c3.734-9.712,11.032-15.675,20.875-18.649c8.899-2.689,16.686,0.07,21.397,7.625c2.206,3.536,2.914,7.506,2.331,11.57
		c-0.402,2.804-2.868,2.623-5.033,2.739c-2.289,0.123-2.864-1.025-2.837-3.078c0.051-3.764-0.832-7.285-3.467-10.141
		c-2.403-2.604-3.849-2.647-5.521,0.409c-2.954,5.399-5.43,11.04-5.373,17.401c0.015,1.782-0.15,3.663,0.357,5.316
		c0.545,1.773,1.667,3.644,3.884,3.693c2.14,0.047,3.057,0.774,2.979,2.97c-0.067,1.909-0.085,3.145-2.646,3.72
		c-6.233,1.401-10.267,6.237-14.266,10.74c-4.684,5.273-7.915,11.533-9.215,18.464c-3.085,16.445-1.742,31.941,11.039,44.509
		c5.479,5.391,11.511,5.182,17.219,0.018c9.279-8.393,15.853-18.467,19.954-30.229c0.278-0.797,0.065-2.137,1.599-1.811
		c1.352,0.287,1.373,1.359,1.51,2.488c0.313,2.598-1.489,4.453-2.256,6.646c-3.579,10.258-7.334,20.416-15.409,28.313
		c-4.613,4.51-9.914,6.518-16.167,5.613c-7.263-1.051-14.301-3.102-20.547-7.063c-8.102-5.143-14.316-11.973-17.633-21.168
		c-5.202-14.43-4.439-28.305,5.097-40.667C71.189,396.271,79.884,388.462,92.611,386.813z"/>
	<path fill="#669898" d="M134.44,430.644c-0.674-14.816,2.461-29.858,8.836-44.226c1.363-3.07,2.831-6.611,6.965-6.794
		c4.877-0.215,7.835,3.031,10.154,6.735c4.472,7.137,3.448,14.816,1.469,22.369c-1.706,6.521-4.078,12.821-8.197,18.321
		c-1.158,1.547-0.688,3.553-0.43,5.232c1.476,9.531,2.689,19.119,5.621,28.375c0.594,1.873,1.209,3.729,3.008,4.473
		c2.146,0.885,3.478-0.859,4.83-2.24c5.626-5.734,8.162-13.25,11.609-20.225c1.615-3.268,2.899-6.707,4.174-10.129
		c0.732-1.965,2.246-2.256,3.734-1.695c1.86,0.699,0.322,2.082,0.026,2.992c-2.997,9.232-6.527,18.248-12.191,26.23
		c-2.634,3.713-5.9,6.891-9.754,9.322c-4.103,2.588-14.089,0.717-18.127-2.783c-9.088-7.877-12.03-18.068-11.734-29.607
		C134.48,435.197,134.44,433.394,134.44,430.644z"/>
	<path fill="#669898" d="M451.965,405.802c-0.323-3.609,1.601-6.652,2.801-9.788c1.205-3.146,4.498-2.256,6.998-1.936
		c2.505,0.32,2.749,2.987,3.713,4.801c0.143,0.268-0.438,1.029-0.813,1.443c-2.716,3-5.421,6.011-8.232,8.918
		c-0.749,0.773-1.368,2.411-2.769,1.71c-1.161-0.58-1.606-1.992-1.69-3.354C451.936,407.002,451.966,406.401,451.965,405.802z"/>
	<path fill="#FEFEFE" d="M455.363,426.054c0.502,5.98,2.897,10.242,7.325,13.229c0.775,0.521,0.919,1.146,0.739,1.777
		c-1.121,3.926-0.552,8.193-2.719,11.941c-1.305,2.256-3.474,2.996-5.611,1.344c-2.082-1.609-3.213-3.762-3.456-6.334
		C450.942,440.625,450.271,433.226,455.363,426.054z"/>
	<path fill="#FEFEFE" d="M361.24,420.171c0-8.834-0.16-17.59,0.108-26.332c0.071-2.3-0.222-6.235,3.241-6.095
		c3.491,0.141,2.212,3.803,2.396,6.125c0.701,8.793-0.889,17.202-4.347,25.287C362.449,419.605,362.294,420.036,361.24,420.171z"/>
	<path fill="#FEFEFE" d="M464.197,433.39c-3.913-3.055-4.916-9.152-2.33-12.198c0.438-0.517,0.881-1.299,1.688-1.105
		c0.948,0.228,0.622,1.148,0.627,1.79C464.215,425.57,464.197,429.261,464.197,433.39z"/>
	<path fill="#FEFEFE" d="M419.154,450.275c1.19,1.734-0.337,3.189-0.443,4.771c-0.12,1.744-1.742,1.881-3.016,1.359
		c-1.534-0.631-1.577-2.135-0.785-3.297C415.896,451.664,417.237,450.458,419.154,450.275z"/>
	<path fill="#FEFEFE" d="M152.557,421.345c-0.1-6.788-1.501-12.926-0.757-19.079c0.451-3.73,0.24-7.534,1.272-11.213
		c0.437-1.552,1.135-2.813,2.749-2.731c1.742,0.088,2.245,1.842,2.292,3.156c0.208,5.816,0.683,11.75-0.988,17.367
		C155.938,412.834,155.399,417.131,152.557,421.345z"/>
</g>
</svg>
