<?xml version="1.0" encoding="utf-8"?>
<!-- Generator: Adobe Illustrator 16.0.3, SVG Export Plug-In . SVG Version: 6.00 Build 0)  -->
<!DOCTYPE svg PUBLIC "-//W3C//DTD SVG 1.1//EN" "http://www.w3.org/Graphics/SVG/1.1/DTD/svg11.dtd">
<svg version="1.1" id="Capa_1" xmlns="http://www.w3.org/2000/svg" xmlns:xlink="http://www.w3.org/1999/xlink" x="0px" y="0px"
	 width="595.279px" height="182.892px" viewBox="0 330.598 595.279 182.892" enable-background="new 0 330.598 595.279 182.892"
	 xml:space="preserve">
<g>
	<path fill="#FEFEFE" d="M298.6,513.49c-84,0-168-0.014-252,0.068c-2.465,0.002-2.953-0.482-2.949-2.947
		c0.09-59.041,0.09-118.081,0-177.121c-0.003-2.465,0.484-2.949,2.949-2.948c168,0.075,336,0.075,504,0
		c2.465-0.001,2.953,0.483,2.949,2.948c-0.09,59.04-0.09,118.08,0,177.121c0.004,2.465-0.484,2.949-2.949,2.947
		C466.6,513.476,382.6,513.49,298.6,513.49z"/>
	<path fill="#EC5042" d="M436.029,437.931c-3.42,3.422-7.306,4.838-8.216,9.74c-0.85,4.576-4.298,8.117-7.938,11.088
		c-2.462,2.008-8.594,0.258-9.559-2.654c-0.35-1.055-0.157-2.074,0.764-2.934c1.58-1.469,2.823-3.51,4.649-4.465
		c4.829-2.523,4.126-6.82,3.708-10.814c-0.277-2.65-0.901-5.324-1.436-7.971c-0.204-1.012-0.563-2.576-1.961-2.676
		c-1.132-0.082-1.781,1.033-2.24,2.023c-2.72,5.889-4.852,11.9-5.074,18.514c-0.509,15.061,2.291,29.998,1.549,45.068
		c-0.109,2.24-0.428,4.283-2.387,5.141c-2.218,0.969-4.633,0.641-6.673-1.051c-3.61-2.994-5.963-6.186-5.56-11.5
		c0.775-10.221,0.025-20.48-1.358-30.646c-0.563-4.139-1.285-8.266-1.94-12.535c-2.816,5.906-5.563,11.732-9.435,16.949
		c-2.507,3.381-5.373,6.438-8.742,8.854c-4.407,3.158-15.015,1.854-19.839-2.85c-4.644-4.523-8.198-9.654-9.53-16.854
		c-1.87,2.68-2.881,5.088-4.822,6.912c-4.803,4.52-10.773,4.676-15.677,0.021c-2.066-1.963-4.271-3.842-5.665-6.391
		c-1.283-2.342-2.445-4.75-3.682-7.174c-1.521,2.58-2.147,5.746-5.222,7.082c-2.867,1.244-6.052,1.029-8.788,0.402
		c-3.675-0.842-6.691-3.756-7.18-7.563c-1.188-9.295,0.264-18.004,7.965-24.535c3.829-3.248,8.95-2.803,11.952,0.917
		c0.784,0.972,1.082,1.987,0.458,2.909c-0.585,0.863-1.449,0.14-2.224-0.168c-5.473-2.169-7.938-0.571-9.079,5.214
		c-1.128,5.715-0.964,11.266,0.816,16.781c0.478,1.482,1.1,3.318,2.626,3.555c1.798,0.273,2.364-1.754,2.96-3.09
		c3.012-6.764,5.001-13.861,6.628-21.066c0.71-3.144,1.959-5.913,4.186-8.396c2.298-2.563,5.104-2.188,7.572-1.503
		c2.194,0.61,1.939,3.229,1.927,5.272c-0.062,8.718,1.003,17.396,0.834,26.134c-0.057,2.938,0.534,6.039,1.853,8.885
		c0.953,2.064,2.188,2.762,3.668,0.867c3.678-4.711,7.373-9.594,7.271-15.932c-0.214-13.207,0.097-26.356,4.432-38.987
		c2.101-6.118,2.896-12.843,7.764-17.829c2.539-2.599,5.637-2.724,8.039-0.956c4.803,3.535,8.589,7.692,8.759,14.576
		c0.29,11.694-3.298,21.892-9.209,31.741c-1.344,2.24-0.662,6.002-0.21,8.955c1.348,8.795,2.572,17.631,5.634,26.07
		c1.561,4.297,3.416,4.883,6.525,1.639c6.13-6.396,9.185-14.576,13.13-22.305c3.191-6.252,2.806-12.186,1.295-18.449
		c-0.907-3.761,1.665-5.664,3.911-7.786c2.08-1.965,4.673-1.77,7.072-1.253c1.229,0.264,2.274,1.528,2.698,3.07
		c1.304,4.734,3.07,9.345,3.612,14.279c0.085,0.787,0.56,1.531,0.98,2.623c0.938-3.146,2.423-5.6,4.696-7.576
		c2.539-2.207,5.559-1.154,8.241-0.965c5.338,0.379,8.637,5.715,9.314,14.816c2.537-2.637,5.423-3.939,6.335-7.572
		c2.162-8.623,8.431-13.741,16.114-17.167c2.067-0.921,5.164-1.248,6.095,2.284c0.322,1.229,1.023,1.016,1.881,0.867
		c4.377-0.765,6.579,0.333,8.15,4.557c1.593,4.277,3.448,8.549,2.948,13.309c-0.255,2.426,0.692,2.771,2.934,2.135
		c3.002-0.854,4.852-3.238,7.311-4.787c0.783-0.492,0.569-1.178,0.348-1.865c-0.432-1.338-0.857-2.678-1.287-4.016
		c-1.674-5.219-0.746-6.743,4.696-7.711c6.523-1.163,7.845,0.018,9.936,6.368c1.074,3.266,0.692,6.799,2.348,9.918
		c1.659-3.063,0.916-6.328,1.078-9.492c0.223-4.357,1.641-8.322,4.487-11.585c2.921-3.35,8.352-3.315,11.658-0.323
		c4.957,4.485,6.671,10.43,7.596,16.709c0.881,5.979,1.834,11.947,1.565,18.053c-0.058,1.32,0.134,3.631,1.732,3.914
		c1.749,0.311,2.625-1.627,3.396-3.111c3.09-5.947,6.35-11.844,8.321-18.268c0.658-2.143,1.895-2.467,3.409-2.02
		c1.854,0.547,0.925,1.936,0.446,3.117c-3.028,7.498-5.543,15.279-11.344,21.279c-3.721,3.85-8.743,3.793-12.782,0.135
		c-2.459-2.227-3.825-5.016-4.859-8.082c-2.83-8.383-3.746-17.014-3.56-25.808c0.036-1.694,0.576-4.046-1.886-4.203
		c-2.047-0.129-1.976,2.188-2.541,3.677c-1.112,2.934-0.78,6.049-1.227,9.065c-1.229,8.289-0.789,16.682-0.813,25.037
		c-0.015,5.223-1.382,6.484-6.386,5.094c-2.814-0.785-5.268-2.27-6.268-5.598c-1.514-5.033-3.527-9.914-5.218-14.898
		c-0.375-1.105-0.267-1.473-1.927-1.328c-4.097,0.357-7.023,3.297-10.829,4.135c-1.057,0.232-0.999,1.441-1.077,2.434
		c-0.31,3.926-1.765,7.508-3.825,10.787c-2.326,3.705-6.201,4.635-10.024,3.744c-8.322-1.943-15.229-6.158-19.452-14.018
		C436.481,442.294,436.021,440.671,436.029,437.931z"/>
	<path fill="#EC5042" d="M250.359,413.644c0,4.318-0.078,8.639,0.017,12.958c0.225,10.402,0.595,20.809,3.632,30.865
		c0.87,2.881,1.636,5.885,4.121,8.049c1.873,1.633,3.41,1.604,5.31,0.027c4.727-3.922,6.27-9.652,8.401-14.941
		c2.045-5.074,3.195-10.506,4.92-15.721c1.036-3.129,1.056-6.467,2.306-9.563c0.578-1.43,0.146-2.688-2.087-2.602
		c-4.552,0.18-9.116,0.049-13.674,0.057c-0.96,0.002-2.001,0.133-2.569-0.855c-0.697-1.212,0.573-1.62,1.094-2.32
		c2.292-3.088,5.159-4.571,9.188-4.082c6.674,0.813,13.146-2.13,19.847-1.368c0.869,0.099,2.021-0.561,2.556,0.597
		c0.508,1.103-0.816,1.642-1.021,2.44c-0.887,3.479-2.972,5.336-6.547,5.622c-1.292,0.104-0.957,1.236-0.902,1.961
		c0.626,8.367-0.378,16.648-2.314,24.701c-1.939,8.064-4.365,16.146-11.266,21.775c-3.647,2.977-8.044,2.426-11.932,1.611
		c-6.03-1.262-11.115-4.695-15.81-8.846c-14.7-12.992-21.896-30.166-25.238-48.629c-1.712-9.458-1.486-19.694,0.694-29.548
		c1.991-9,4.208-17.934,9.728-25.416c4.565-6.189,9.851-11.814,17.718-14.178c11.091-3.332,23.992,0.838,29.666,9.849
		c3.425,5.436,3.27,11.52,2.848,17.537c-0.171,2.428-2.512,2.419-4.512,2.358c-1.99-0.061-3.032-0.961-3.313-2.966
		c-0.229-1.634,0.333-3.142,0.902-4.481c0.908-2.142,0.856-4.349,0.369-6.315c-0.649-2.625-1.304-5.753-4.746-6.378
		c-3.921-0.711-6.619,0.809-8.786,4.44c-3.556,5.959-5.139,12.599-6.368,19.272C250.515,390.809,249.699,402.189,250.359,413.644z"
		/>
	<path fill="#EC5042" d="M92.645,386.871c-5.387-1.841-10.409-3.868-14.237-8.195c-3.158-3.568-4.078-8.904-2.138-13.209
		c4.131-9.16,11.082-14.972,20.625-17.861c8.917-2.699,16.593-0.098,21.356,7.509c2.177,3.477,3,7.416,2.465,11.492
		c-0.405,3.094-2.994,2.75-5.223,2.894c-2.418,0.156-2.694-1.271-2.677-3.199c0.035-3.757-0.882-7.243-3.526-10.069
		c-2.387-2.55-3.843-2.572-5.502,0.505c-2.907,5.385-5.401,10.987-5.338,17.319c0.018,1.785-0.19,3.674,0.319,5.324
		c0.544,1.754,1.655,3.647,3.849,3.724c2.057,0.071,3.115,0.584,3.063,2.868c-0.048,2.089-0.197,3.221-2.872,3.864
		c-6.145,1.478-10.204,6.3-14.151,10.837c-4.518,5.19-7.646,11.268-8.992,18.07c-3.273,16.542-1.805,31.949,10.817,44.728
		c5.863,5.938,12.49,4.492,17.463-0.055c9.202-8.412,15.724-18.455,19.833-30.152c0.282-0.801,0.024-2.129,1.57-1.799
		c1.344,0.287,1.37,1.342,1.523,2.475c0.368,2.715-1.491,4.695-2.309,6.959c-3.669,10.152-7.342,20.32-15.454,28.137
		c-4.637,4.465-9.936,6.436-16.155,5.514c-7.214-1.07-14.213-3.104-20.432-7.049c-8.078-5.123-14.331-11.91-17.646-21.055
		c-5.244-14.465-4.512-28.443,5.097-40.836C71.214,396.277,79.851,388.373,92.645,386.871z"/>
	<path fill="#EC5042" d="M134.44,430.632c-0.724-14.743,2.478-29.829,8.854-44.251c1.35-3.055,2.816-6.576,6.941-6.761
		c4.867-0.217,7.812,3.016,10.137,6.694c4.484,7.095,3.489,14.777,1.542,22.287c-1.709,6.585-4.112,12.958-8.292,18.526
		c-1.185,1.58-0.641,3.771-0.364,5.588c1.038,6.836,2.042,13.699,3.619,20.422c0.837,3.568,1.308,7.342,3.409,10.605
		c1.322,2.057,3.035,2.078,4.458,0.908c1.986-1.637,3.925-3.4,5.288-5.742c4.798-8.244,8.861-16.818,12.134-25.773
		c0.554-1.516,1.355-2.717,3.373-2.479c1.326,0.154,1.724,0.666,1.293,1.83c-4.444,12.02-8.342,24.289-18.124,33.48
		c-6.493,6.102-16.702,5.977-23.325-0.104c-7.888-7.242-10.743-16.313-10.938-26.588C134.4,436.757,134.44,434.24,134.44,430.632z"
		/>
	<path fill="#EC5042" d="M451.961,405.886c-0.231-3.732,1.592-6.776,2.8-9.886c1.218-3.137,4.474-2.225,6.976-1.941
		c2.532,0.288,2.688,3,3.784,4.708c0.351,0.547-0.361,1.046-0.758,1.477c-2.726,2.965-5.411,5.968-8.199,8.872
		c-0.776,0.809-1.477,2.433-2.719,1.93c-1.479-0.598-1.919-2.263-1.885-3.895C451.97,406.673,451.961,406.195,451.961,405.886z"/>
	<path fill="#FEFEFE" d="M455.401,425.794c0.379,6.109,2.794,10.258,6.96,13.314c0.782,0.574,1.344,1.031,1.081,1.902
		c-1.176,3.895-0.512,8.156-2.725,11.887c-1.353,2.279-3.417,3.162-5.502,1.531c-2.03-1.59-3.208-3.619-3.512-6.275
		C450.856,440.726,450.42,433.4,455.401,425.794z"/>
	<path fill="#FEFEFE" d="M361.17,420.36c0.574-10.121-0.824-20.046,0.755-29.953c0.266-1.668,1.077-2.846,2.62-2.808
		c1.547,0.038,2.384,1.266,2.466,2.942c0.494,10.128-0.223,20.053-4.777,29.352C362.158,420.046,361.836,420.078,361.17,420.36z"/>
	<path fill="#FEFEFE" d="M464.198,433.689c-3.923-3.574-4.813-9.607-2.313-12.521c0.437-0.509,0.864-1.299,1.673-1.119
		c0.96,0.214,0.621,1.133,0.626,1.767C464.215,425.57,464.198,429.326,464.198,433.689z"/>
	<path fill="#FEFEFE" d="M419.589,451.812c-1.321,1.201,0.497,4.32-2.659,4.766c-1.335,0.188-2.375-0.336-2.384-1.873
		c-0.015-2.605,2.095-3.449,3.941-4.355C419.568,449.82,419.477,450.876,419.589,451.812z"/>
	<path fill="#FEFEFE" d="M152.52,421.41c0.002-6.834-1.502-12.981-0.72-19.142c0.472-3.718,0.21-7.512,1.271-11.178
		c0.442-1.526,1.069-2.817,2.69-2.794c1.783,0.025,2.304,1.818,2.345,3.081c0.192,5.919,0.688,11.943-1.057,17.677
		C155.849,413.001,155.341,417.257,152.52,421.41z"/>
</g>
</svg>
