<?xml version="1.0" encoding="utf-8"?>
<!-- Generator: Adobe Illustrator 16.0.3, SVG Export Plug-In . SVG Version: 6.00 Build 0)  -->
<!DOCTYPE svg PUBLIC "-//W3C//DTD SVG 1.1//EN" "http://www.w3.org/Graphics/SVG/1.1/DTD/svg11.dtd">
<svg version="1.1" id="Capa_1" xmlns="http://www.w3.org/2000/svg" xmlns:xlink="http://www.w3.org/1999/xlink" x="0px" y="0px"
	 width="595.279px" height="189.045px" viewBox="0 324.445 595.279 189.045" enable-background="new 0 324.445 595.279 189.045"
	 xml:space="preserve">
<g>
	<path fill="#FEFEFE" d="M298.6,513.49c-84,0-168-0.014-252,0.068c-2.465,0.002-2.953-0.482-2.949-2.947
		c0.09-59.041,0.09-118.081,0-177.121c-0.003-2.465,0.484-2.949,2.949-2.948c168,0.075,336,0.075,504,0
		c2.465-0.001,2.953,0.483,2.949,2.948c-0.09,59.04-0.09,118.08,0,177.121c0.004,2.465-0.484,2.949-2.949,2.947
		C466.6,513.476,382.6,513.49,298.6,513.49z"/>
	<path fill="#ED988F" d="M435.818,438.251c-3.432,3.074-7.107,4.766-8.083,9.574c-0.882,4.352-4.086,7.754-7.528,10.648
		c-2.57,2.164-8.295,0.943-9.719-2.074c-0.566-1.203-0.344-2.303,0.648-3.262c1.553-1.5,2.812-3.525,4.639-4.477
		c4.539-2.363,4.187-6.348,3.685-10.188c-0.381-2.893-1.067-5.77-1.515-8.68c-0.144-0.936-0.572-2.299-1.773-2.484
		c-1.226-0.189-1.88,0.932-2.333,1.895c-2.691,5.707-4.813,11.578-5.084,17.98c-0.645,15.078,2.251,30.037,1.503,45.129
		c-0.119,2.404-0.109,4.836-2.582,5.748c-2.589,0.955-4.978,0.146-7.23-1.781c-3.421-2.922-4.995-6.104-4.757-10.814
		c0.657-13.002-0.339-25.947-2.729-38.768c-0.13-0.697,0.001-1.439-0.049-2.156c-0.046-0.68,0.213-1.436-0.685-2.252
		c-2.001,3.982-3.953,7.881-5.917,11.773c-2.631,5.219-6.62,9.355-10.918,13.15c-4.026,3.557-9.024,3.029-13.607,1.764
		c-9.181-2.535-13.686-9.662-16.364-18.229c-0.177-0.566-0.125-1.197-1.061-1.713c-1.474,1.939-2.363,4.355-4.262,6.139
		c-4.885,4.584-10.844,4.797-15.786,0.1c-1.982-1.885-4.009-3.729-5.504-6.107c-1.451-2.309-2.432-4.834-3.782-7.719
		c-0.566,1.273-0.893,2.201-1.365,3.043c-2.619,4.678-6.926,6.277-12.887,4.834c-3.563-0.861-6.994-5.895-7.246-10.078
		c-0.501-8.365,1.257-15.83,7.744-21.681c4.004-3.611,8.601-3.59,12.057,0.103c0.896,0.957,1.597,2.018,0.815,3.164
		c-0.729,1.071-1.71,0.11-2.553-0.216c-5.03-1.946-7.777-0.188-8.738,5.136c-1.034,5.734-1.086,11.346,0.813,16.896
		c0.534,1.566,1.024,3.563,2.941,3.617c1.544,0.045,2.101-1.793,2.665-3.07c2.979-6.748,4.981-13.814,6.602-20.988
		c0.749-3.321,2.072-6.211,4.511-8.725c2.171-2.239,4.76-1.819,7.021-1.274c2.3,0.555,2.177,3.093,2.16,5.156
		c-0.067,8.728,1.042,17.417,0.824,26.166c-0.071,2.877,0.507,5.904,1.658,8.68c0.933,2.248,2.406,3.305,4.153,0.932
		c3.492-4.746,7.167-9.533,7.018-15.855c-0.313-13.154,0.114-26.249,4.409-38.824c2.075-6.074,2.843-12.812,7.729-17.681
		c2.295-2.285,6.038-2.943,8.411-0.965c4.63,3.86,8.313,8.019,8.44,14.93c0.214,11.438-3.348,21.405-9.098,30.983
		c-1.585,2.641-0.687,6.08-0.305,9c1.164,8.904,2.521,17.809,5.584,26.334c1.542,4.291,3.454,4.842,6.604,1.561
		c6.034-6.283,9.063-14.334,12.979-21.912c3.281-6.354,2.996-12.512,1.373-18.951c-1.227-4.867,5.79-10.714,10.907-8.885
		c1.439,0.515,2.339,1.788,2.876,3.423c0.891,2.712,1.275,5.587,2.308,8.193c1.021,2.576,0.646,5.443,2.146,8.102
		c0.343-0.779,0.589-1.377,0.861-1.961c2.701-5.783,6.001-7.488,12.321-6.375c4.448,0.783,8.591,5.879,8.896,10.822
		c0.069,1.107-0.701,2.752,0.644,3.199c1.192,0.398,1.843-1.25,2.725-1.996c1.748-1.479,2.881-3.215,3.521-5.563
		c2.219-8.127,8.294-12.867,15.538-16.178c2.207-1.009,5.094-1.307,6.289,1.967c0.385,1.056,0.885,1.191,1.846,1.079
		c4.756-0.557,6.592,0.358,8.217,4.585c1.611,4.193,3.396,8.395,2.967,13.076c-0.24,2.637,0.779,2.932,3.213,2.18
		c2.908-0.898,4.676-3.197,7.045-4.725c0.722-0.465,0.501-1.207,0.237-1.924c-0.448-1.227-0.813-2.482-1.211-3.727
		c-1.713-5.357-1.841-5.849,3.479-7.234c6.887-1.792,9.747-1.176,11.192,5.544c0.708,3.287,0.787,6.803,2.279,9.979
		c1.608-2.605,1.121-5.414,1.094-8.129c-0.05-4.84,1.435-9.175,4.509-12.802c2.887-3.404,8.365-3.327,11.731-0.277
		c4.793,4.343,6.646,10.093,7.478,16.175c0.821,5.996,2.139,11.98,1.527,18.111c-0.046,0.461-0.023,1.039,0.213,1.396
		c0.64,0.963,0.21,2.729,1.661,2.943c1.494,0.221,2.359-1.209,2.924-2.287c2.322-4.432,4.509-8.938,6.644-13.467
		c0.856-1.816,1.66-3.711,2.11-5.658c0.497-2.145,1.91-2.453,3.486-1.951c1.673,0.531,0.896,1.891,0.44,2.977
		c-3.159,7.531-5.617,15.447-11.53,21.49c-3.497,3.574-8.485,3.65-12.36,0.324c-2.628-2.256-4.138-5.16-5.208-8.389
		c-2.839-8.559-3.764-17.363-3.518-26.329c0.043-1.567,0.241-3.417-1.826-3.662c-1.9-0.225-1.985,1.724-2.477,2.974
		c-1.237,3.152-0.923,6.556-1.377,9.832c-1.225,8.785-0.853,17.666-0.748,26.51c0.033,2.875-0.979,3.766-3.771,3.695
		c-5.021-0.127-7.584-1.885-9.228-6.721c-1.563-4.596-3.257-9.146-4.806-13.748c-0.435-1.295-0.662-1.592-2.36-1.416
		c-3.998,0.416-6.896,3.189-10.577,4.146c-1.075,0.279-0.895,1.52-1.014,2.479c-0.479,3.803-1.734,7.354-3.798,10.58
		c-2.391,3.736-6.216,4.664-10.068,3.785c-8.571-1.955-15.529-6.428-19.757-14.498C436.29,442.001,436.147,440.494,435.818,438.251z
		"/>
	<path fill="#ED988F" d="M250.359,415.934c-0.359,7.769-0.113,17.716,0.854,27.58c0.64,6.541,1.795,13.15,4.786,19.193
		c2.364,4.781,5,5.184,8.765,1.48c3.81-3.744,5.158-8.813,7.041-13.502c2.064-5.141,3.263-10.623,4.984-15.908
		c0.993-3.051,1.063-6.289,2.247-9.316c0.716-1.832-0.248-2.793-2.398-2.729c-4.435,0.133-8.877,0.035-13.316,0.039
		c-0.967,0-2.036,0.098-2.554-0.908c-0.6-1.169,0.594-1.645,1.142-2.352c2.256-2.917,4.938-4.521,8.908-4.001
		c6.572,0.859,12.952-2.017,19.552-1.368c1.009,0.101,2.321-0.526,2.946,0.609c0.68,1.231-1.009,1.813-1.172,2.709
		c-0.633,3.479-2.898,4.86-6.067,5.313c-1.162,0.166-1.188,1.037-1.141,1.887c0.447,8.143-0.309,16.193-2.216,24.098
		c-1.745,7.23-3.862,14.262-8.902,20.186c-4.188,4.92-9.39,4.965-14.679,3.816c-6.13-1.33-11.171-4.904-15.887-9.121
		c-14.476-12.939-21.542-29.963-24.848-48.245c-1.717-9.497-1.463-19.734,0.687-29.604c1.959-8.999,4.285-17.865,9.696-25.398
		c3.888-5.414,8.432-10.685,14.903-13.037c10.713-3.893,25.585-2.405,32.323,8.446c3.43,5.524,3.427,11.536,3.046,17.606
		c-0.156,2.487-2.319,2.627-4.366,2.581c-1.966-0.045-3.149-0.858-3.444-2.869c-0.22-1.491,0.222-2.876,0.782-4.172
		c0.903-2.085,0.979-4.309,0.52-6.342c-0.637-2.822-1.254-6.073-4.888-6.753c-3.974-0.743-6.502,0.74-8.764,4.555
		c-3.518,5.936-5.05,12.541-6.297,19.179c-1.048,5.579-1.802,11.249-2.161,16.913C250.077,402.232,250.359,408.009,250.359,415.934z
		"/>
	<path fill="#ED988F" d="M92.455,386.793c-5.19-1.833-10.188-3.763-13.963-8.027c-3.258-3.678-4.188-8.84-2.218-13.273
		c4.073-9.164,10.993-14.971,20.518-17.833c9-2.706,16.838-0.051,21.48,7.445c2.188,3.531,3.016,7.49,2.419,11.589
		c-0.409,2.823-2.825,2.709-5.012,2.811c-2.26,0.105-2.868-1.026-2.868-3.083c0-4.036-1.021-7.712-3.987-10.721
		c-1.514-1.534-2.872-1.815-4.125,0.006c-4.818,7.009-7.118,14.775-6.031,23.256c0.275,2.154,1.818,4.224,4.636,4.209
		c1.965-0.01,2.419,1.181,2.334,2.838c-0.078,1.496,0.363,3.08-1.883,3.654c-8.86,2.265-13.986,9.112-18.713,16.101
		c-6.822,10.086-7.741,21.768-6.543,33.303c1.021,9.832,5.297,18.746,13.104,25.424c5.097,4.357,10.841,3.895,15.979-0.777
		c8.982-8.172,15.773-17.738,19.707-29.301c0.351-1.033,0.073-3.52,2.326-2.783c1.918,0.627,1.602,2.846,1.068,4.08
		c-2.808,6.504-4.465,13.473-8.143,19.635c-2.488,4.17-4.455,8.512-7.858,12.25c-6.94,7.627-14.975,8.016-24.128,5.711
		c-10.56-2.656-19.321-8.029-26.024-16.504c-4.868-6.152-7.606-13.459-8.464-21.188c-1.175-10.594,0.585-20.753,7.424-29.35
		C71.563,396.118,79.52,388.935,92.455,386.793z"/>
	<path fill="#ED988F" d="M163.386,396.446c-0.135,12.233-3.831,21.408-9.279,29.933c-1.277,2-1.125,3.959-0.854,5.832
		c1.407,9.709,2.743,19.449,5.689,28.854c1.642,5.236,4.715,5.229,7.664,2.043c5.494-5.934,8.172-13.359,11.676-20.35
		c1.588-3.172,2.731-6.566,4.017-9.885c0.659-1.705,1.807-2.621,3.584-2.105c2.309,0.676,0.652,2.213,0.341,3.16
		c-3.006,9.168-6.508,18.133-12.138,26.07c-2.641,3.721-5.884,6.926-9.756,9.355c-3.989,2.508-14.012,0.814-17.92-2.529
		c-8.471-7.242-11.923-16.605-11.955-27.457c-0.026-8.484-0.645-17.033,0.789-25.422c1.774-10.39,4.027-20.763,9.358-30.021
		c3.146-5.459,6.78-6.083,12.1-1.8C161.781,386.216,163.917,391.781,163.386,396.446z"/>
	<path fill="#ED988F" d="M451.968,405.967c-0.261-3.794,1.58-6.874,2.754-10.023c1.18-3.163,4.502-2.148,6.981-1.86
		c2.529,0.294,2.826,2.925,3.733,4.777c0.145,0.294-0.407,1.048-0.78,1.46c-2.707,2.997-5.409,6-8.212,8.905
		c-0.748,0.776-1.381,2.378-2.783,1.684c-1.187-0.587-1.601-1.998-1.688-3.356C451.937,406.96,451.968,406.361,451.968,405.967z"/>
	<path fill="#FEFEFE" d="M455.436,426.324c0.428,5.715,2.823,9.803,6.989,12.83c0.643,0.467,1.173,0.871,1.015,1.676
		c-0.862,4.387-0.776,9.029-3.003,13.053c-1.176,2.125-3.312,1.656-4.992,0.658c-1.181-0.701-2.173-1.813-2.848-3.152
		C449.718,445.671,451.018,432.298,455.436,426.324z"/>
	<path fill="#FEFEFE" d="M361.532,420.039c0.192-9.89-1.165-19.771,0.405-29.617c0.257-1.607,1.004-2.865,2.66-2.801
		c1.418,0.056,2.313,1.189,2.377,2.69C367.414,400.593,367.095,410.75,361.532,420.039z"/>
	<path fill="#FEFEFE" d="M464.197,433.531c-3.876-3.326-4.813-9.33-2.378-12.271c0.439-0.529,0.904-1.281,1.694-1.106
		c0.944,0.208,0.664,1.133,0.67,1.786C464.212,425.615,464.197,429.291,464.197,433.531z"/>
	<path fill="#FEFEFE" d="M416.906,456.597c-1.753-0.051-2.559-0.883-2.33-2.303c0.368-2.285,2.168-3.393,4.153-3.932
		c0.925-0.25,1.023,1.113,0.745,1.572C418.536,453.486,419.74,456.375,416.906,456.597z"/>
	<path fill="#FEFEFE" d="M152.786,420.899c-1.332-9.322-1.396-18.402-0.337-27.491c0.04-0.354,0.001-0.748,0.145-1.055
		c0.755-1.626,0.76-4.33,3.276-3.95c2.23,0.337,2.223,2.667,2.349,4.615c0.539,8.291-0.701,16.304-3.573,24.081
		c-0.327,0.888-0.657,1.775-1.043,2.637C153.43,420.119,153.116,420.439,152.786,420.899z"/>
</g>
</svg>
