<?xml version="1.0" encoding="utf-8"?>
<!-- Generator: Adobe Illustrator 16.0.3, SVG Export Plug-In . SVG Version: 6.00 Build 0)  -->
<!DOCTYPE svg PUBLIC "-//W3C//DTD SVG 1.1//EN" "http://www.w3.org/Graphics/SVG/1.1/DTD/svg11.dtd">
<svg version="1.1" id="Capa_1" xmlns="http://www.w3.org/2000/svg" xmlns:xlink="http://www.w3.org/1999/xlink" x="0px" y="0px"
	 width="595.279px" height="187px" viewBox="0 321.445 595.279 187" enable-background="new 0 321.445 595.279 187"
	 xml:space="preserve">
<g>
	<path d="M483.754,436.089c-3.843,1.584-7.636,3.063-11.332,4.746c-0.762,0.348-1.396,1.389-1.697,2.248
		c-1.11,3.162-1.692,6.559-3.146,9.539c-2.61,5.354-7.364,6.527-13.15,4.643c-5.455-1.775-10.309-4.268-13.783-8.828
		c-2.143-2.811-3.748-6.031-5.72-9.273c-2.113,2.107-5.98,3.33-6.987,8.217c-0.955,4.639-4.291,8.406-8.096,11.414
		c-2.379,1.883-8.231,0.412-9.326-2.434c-0.333-0.863,0.027-2.457,0.676-3.15c2.023-2.16,4.357-4.027,6.526-6.055
		c0.673-0.631,1.679-1.387,1.724-2.133c0.371-6.168,0.004-12.248-3.306-18.896c-1.506,2.354-2.834,3.932-3.623,5.744
		c-4.704,10.809-4.089,22.084-3.188,33.508c0.771,9.75,0.753,19.574,0.792,29.365c0.014,3.471-5.306,5.162-8.401,2.564
		c-3.408-2.855-6.452-5.693-6.111-11.244c0.509-8.307-0.036-16.709-0.608-25.039c-0.43-6.256-1.605-12.461-2.432-18.553
		c-3.25,5.648-6.156,11.465-9.805,16.77c-2.315,3.365-5.475,6.311-8.728,8.832c-4.206,3.262-15.23,1.871-19.748-2.994
		c-2.162-2.328-4.297-4.771-5.947-7.465c-1.614-2.635-2.598-5.656-3.827-8.439c-1.433,1.91-2.758,4.098-4.485,5.898
		c-4.725,4.932-11.048,5.104-15.786,0.02c-3.63-3.895-6.579-8.426-9.725-12.537c-0.082,0.193-0.389,1.205-0.899,2.102
		c-2.554,4.473-7.165,6.119-12.931,4.686c-3.457-0.861-6.915-5.986-7.159-10.061c-0.506-8.445,1.292-15.971,7.867-21.842
		c3.846-3.435,8.21-3.514,11.653,0.063c0.818,0.852,1.124,2.197,1.665,3.315c-0.285,0.238-0.57,0.479-0.854,0.718
		c-1.03-0.452-2.039-0.959-3.094-1.344c-3.718-1.358-7.445,0.891-7.946,4.977c-0.729,5.938-1.254,11.77,0.876,17.488
		c0.542,1.455,1.577,2.729,2.386,4.084c0.398,0.021,0.797,0.047,1.194,0.068c1.419-3,3.17-5.893,4.185-9.023
		c1.728-5.338,2.763-10.902,4.546-16.219c0.942-2.813,2.709-5.395,4.358-7.911c1.809-2.755,4.921-2.082,7.158-1.321
		c1.131,0.384,1.87,3.313,1.958,5.129c0.423,8.705,0.403,17.431,0.889,26.128c0.174,3.1,1.204,6.176,2.072,9.195
		c0.598,2.082,2.166,2.328,3.434,0.684c3.642-4.732,7.438-9.566,7.315-15.918c-0.256-13.336,0.146-26.614,4.479-39.345
		c2.043-6.001,2.857-12.621,7.683-17.508c2.563-2.596,5.631-2.736,8.037-0.99c4.833,3.507,8.598,7.684,8.793,14.55
		c0.331,11.704-3.297,21.896-9.186,31.758c-1.345,2.254-0.765,6.047-0.213,8.969c1.65,8.736,3.569,17.432,5.7,26.063
		c1.104,4.469,3.297,4.93,6.451,1.643c6.137-6.398,9.169-14.594,13.126-22.316c3.21-6.264,2.768-12.197,1.28-18.457
		c-0.9-3.788,1.474-6.076,4.03-7.63c1.928-1.171,4.657-1.368,7.014-1.309c0.898,0.023,2.184,1.843,2.545,3.064
		c1.392,4.705,2.466,9.501,3.701,14.253c0.186,0.713,0.596,1.369,0.977,2.217c3.063-7.418,6.118-9.322,12.999-8.287
		c5.25,0.789,8.479,5.709,9.324,14.91c2.489-2.652,5.371-3.951,6.295-7.598c2.179-8.607,8.49-13.673,16.134-17.194
		c3.047-1.402,5.124-0.096,6.614,3.274c6.217-1.232,9.147,1.041,10.982,8.509c0.474,1.928,1.142,3.83,1.393,5.787
		c0.238,1.873,0.051,3.799,0.051,5.818c4.979,0.43,7.543-3.158,10.79-5.486c-0.741-2.736-1.652-5.41-2.108-8.158
		c-0.172-1.029,0.44-2.937,1.177-3.226c2.246-0.884,4.706-1.308,7.119-1.667c3.796-0.568,5.46,0.295,6.755,5.422
		c0.882,3.496,1.582,7.037,3.158,10.547c0.156-2.314,0.502-4.631,0.435-6.936c-0.154-5.293,1.224-10.067,4.719-14.032
		c2.769-3.14,8.204-3.04,11.407-0.189c5.221,4.646,6.779,10.903,7.64,17.405c0.865,6.541,1.448,13.119,2.213,19.674
		c0.075,0.645,0.552,1.242,1.116,2.449c1.242-1.367,2.536-2.289,3.148-3.543c2.881-5.914,5.747-11.846,8.247-17.926
		c0.943-2.295,1.854-3.441,5.131-2.338c-1.092,2.861-1.893,5.869-3.329,8.535c-2.879,5.34-5.729,10.77-9.308,15.631
		c-2.86,3.885-8.636,3.84-12.079,0.18c-2.188-2.328-3.995-5.283-5.129-8.275c-3.224-8.506-3.841-17.461-3.722-26.498
		c0.019-1.312-0.794-2.635-1.223-3.953c-0.521,0.021-1.044,0.042-1.565,0.063c-0.728,2.011-1.971,3.99-2.099,6.038
		c-0.666,10.693-1.123,21.4-1.499,32.107c-0.184,5.229-1.396,6.484-6.412,5.102c-2.819-0.779-5.255-2.275-6.271-5.596
		C488.003,447.492,485.868,442.046,483.754,436.089z M455.415,425.908c-5.104,7.363-4.635,14.729-3.725,21.998
		c0.278,2.227,1.847,4.537,3.404,6.295c1.893,2.141,4.719,1.334,5.559-1.482c1.13-3.787,1.947-7.674,2.747-11.549
		c0.116-0.561-0.441-1.508-0.969-1.914C458.299,436.052,455.771,431.988,455.415,425.908z M361.963,419.946
		c5.171-9.157,5.48-19.338,4.933-29.618c-0.051-0.969-1.437-1.867-2.203-2.798c-0.909,0.911-2.593,1.806-2.609,2.734
		C361.891,400.196,361.963,410.133,361.963,419.946z M464.097,419.808c-4.921,3.09-4.739,10.344,0,13.245
		C464.097,428.724,464.097,424.462,464.097,419.808z M419.639,450.492c-0.278-0.178-0.558-0.355-0.836-0.533
		c-1.27,0.988-2.689,1.844-3.738,3.027c-0.483,0.547-0.527,1.854-0.229,2.598c0.211,0.527,1.416,1.059,2.024,0.92
		c0.735-0.166,1.628-0.924,1.887-1.631C419.253,453.488,419.364,451.958,419.639,450.492z"/>
	<path d="M279.473,422.966c-6.771-0.604-12.935,0.4-19.677-0.775c3.213-4.132,5.648-6.974,10.851-6.789
		c6.354,0.226,12.75-0.806,19.13-1.261c1.18-0.083,2.37-0.012,4.27-0.012c-2.455,4.054-2.855,9.112-9.125,8.602
		c0,3.75,0.148,7.223-0.03,10.678c-0.438,8.49-1.802,16.855-5.112,24.715c-1.6,3.797-3.883,7.348-6.163,10.807
		c-3.5,5.309-9.116,4.973-14.184,3.938c-6.03-1.232-11.111-4.705-15.805-8.855c-14.698-12.992-21.854-30.168-25.254-48.628
		c-1.745-9.474-0.119-19.718,0.925-29.514c0.975-9.145,3.991-17.966,9.512-25.448c4.566-6.19,9.854-11.811,17.715-14.179
		c11.08-3.336,23.991,0.833,29.664,9.841c3.42,5.431,3.283,11.511,2.854,17.529c-0.174,2.435-2.6,2.815-4.462,2.243
		c-1.279-0.393-2.791-1.669-3.181-2.878c-0.414-1.288,0.457-2.952,0.616-4.467c0.232-2.21,0.806-4.533,0.364-6.625
		c-0.537-2.54-1.364-5.453-4.625-6.041c-3.916-0.708-7.157,0.589-8.674,4.477c-2.539,6.507-4.94,13.156-6.455,19.956
		c-3.772,16.937-2.278,34.211-2.117,51.343c0.095,10.068,0.85,20.27,4.943,29.77c0.635,1.475,1.66,2.83,2.719,4.059
		c1.63,1.889,3.356,1.674,5.255,0.104c4.731-3.916,6.277-9.646,8.41-14.938c2.047-5.074,3.383-10.449,4.85-15.744
		C277.745,431.05,278.506,427.15,279.473,422.966z"/>
	<path d="M92.625,386.842c-5.376-1.821-10.405-3.848-14.235-8.184c-3.124-3.537-4.042-8.947-2.105-13.221
		c4.146-9.158,11.107-14.978,20.651-17.862c8.88-2.684,16.613-0.018,21.362,7.586c2.181,3.491,3,7.444,2.405,11.517
		c-0.446,3.046-3.043,2.716-5.29,2.825c-2.485,0.121-2.562-1.433-2.601-3.285c-0.081-3.857-1.123-7.321-3.786-10.354
		c-2.303-2.624-4.014-1.264-5.055,0.684c-1.871,3.499-3.615,7.169-4.656,10.975c-0.858,3.14-0.864,6.583-0.806,9.884
		c0.055,3.047,1.342,5.375,4.925,5.895c0.853,0.124,2.063,1.827,2.053,2.794c-0.01,1.187-0.926,3.207-1.796,3.413
		c-6.723,1.596-10.889,6.555-15.108,11.287c-4.595,5.151-7.639,11.297-8.963,18.093c-3.201,16.419-1.73,31.73,10.737,44.468
		c5.972,6.1,12.669,4.605,17.731-0.074c9.6-8.873,16.384-19.41,20.208-32.021c3.567,0.688,2.938,3.301,2.212,5.012
		c-3.742,8.826-6.934,18.049-11.92,26.145c-5.231,8.492-11.957,13.996-23.968,11.693c-12.608-2.416-23.06-7.969-30.662-18.035
		c-4.815-6.375-7.43-14.016-8.032-22.205c-0.72-9.777,1.036-19.029,6.956-26.849C70.401,397.088,79.221,388.619,92.625,386.842z"/>
	<path d="M187.157,431.416c-4.491,12.461-8.419,25.174-18.595,34.697c-6.31,5.904-16.606,5.764-23.063-0.143
		c-7.998-7.313-11.071-16.463-11.02-26.895c0.042-8.346-0.21-16.771,0.845-25.011c1.352-10.562,4.14-20.917,9.305-30.382
		c2.547-4.668,7.262-5.576,11.381-2.241c4.491,3.635,7.076,8.297,7.292,14.349c0.412,11.565-3.49,21.657-9.513,31.241
		c-0.887,1.41-0.862,3.742-0.53,5.51c1.75,9.314,3.635,18.607,5.725,27.852c0.395,1.74,1.617,3.982,3.046,4.576
		c1.088,0.451,3.786-0.916,4.6-2.209c4.114-6.541,7.979-13.25,11.653-20.051c1.657-3.07,2.454-6.602,4.074-9.697
		c0.663-1.264,2.474-1.928,3.762-2.865C186.465,430.57,186.811,430.992,187.157,431.416z M152.452,421.115
		c0.652-0.76,1.045-1.045,1.205-1.426c3.786-9.072,5.292-18.53,4.425-28.308c-0.1-1.108-1.517-2.1-2.322-3.145
		c-0.882,0.957-1.838,1.858-2.616,2.894c-0.396,0.527-0.661,1.294-0.664,1.955C152.438,402.252,152.452,411.419,152.452,421.115z"/>
	<path d="M465.655,399.136c-3.844,4.193-7.529,8.214-11.854,12.93c-0.768-2.031-1.942-3.562-1.721-4.851
		c0.674-3.894,1.558-7.825,3.004-11.487c1.069-2.707,7.407-2.499,9.009,0.057C464.709,396.769,465.089,397.9,465.655,399.136z"/>
	<path fill="#FFFFFF" d="M455.415,425.908c0.354,6.08,2.884,10.146,7.018,13.348c0.526,0.406,1.085,1.354,0.969,1.914
		c-0.8,3.875-1.617,7.762-2.747,11.549c-0.84,2.816-3.666,3.623-5.559,1.482c-1.559-1.758-3.126-4.068-3.404-6.295
		C450.781,440.636,450.311,433.271,455.415,425.908z"/>
	<path fill="#FFFFFF" d="M361.963,419.946c0-9.813-0.072-19.75,0.118-29.682c0.019-0.928,1.701-1.823,2.61-2.734
		c0.768,0.931,2.152,1.829,2.203,2.798C367.444,400.608,367.134,410.79,361.963,419.946z"/>
	<path fill="#FFFFFF" d="M464.097,419.808c0,4.657,0,8.917,0,13.245C459.357,430.152,459.176,422.898,464.097,419.808z"/>
	<path fill="#FFFFFF" d="M419.639,450.492c-0.274,1.469-0.386,2.996-0.892,4.381c-0.259,0.707-1.15,1.465-1.887,1.631
		c-0.608,0.139-1.813-0.393-2.024-0.92c-0.3-0.744-0.256-2.051,0.229-2.598c1.049-1.186,2.47-2.039,3.738-3.027
		C419.081,450.134,419.36,450.314,419.639,450.492z"/>
	<path fill="#FFFFFF" d="M152.452,421.115c0-9.696-0.015-18.862,0.027-28.03c0.003-0.66,0.269-1.427,0.664-1.955
		c0.778-1.035,1.734-1.937,2.616-2.894c0.806,1.045,2.223,2.037,2.322,3.145c0.867,9.776-0.639,19.235-4.425,28.307
		C153.498,420.07,153.105,420.355,152.452,421.115z"/>
</g>
</svg>
