<?xml version="1.0" encoding="utf-8"?>
<!-- Generator: Adobe Illustrator 16.0.3, SVG Export Plug-In . SVG Version: 6.00 Build 0)  -->
<!DOCTYPE svg PUBLIC "-//W3C//DTD SVG 1.1//EN" "http://www.w3.org/Graphics/SVG/1.1/DTD/svg11.dtd">
<svg version="1.1" id="Capa_1" xmlns="http://www.w3.org/2000/svg" xmlns:xlink="http://www.w3.org/1999/xlink" x="0px" y="0px"
	 width="506.14px" height="157.677px" viewBox="0 15.022 506.14 157.677" enable-background="new 0 15.022 506.14 157.677"
	 xml:space="preserve">
<g>
	<path fill="#FEFEFE" d="M254.95,187.729c-84,0-168-0.015-252,0.067c-2.465,0.002-2.953-0.481-2.949-2.946
		C0.09,125.809,0.09,66.769,0,7.729C-0.003,5.263,0.484,4.779,2.949,4.78c168,0.075,335.999,0.075,503.999,0
		c2.467-0.001,2.953,0.482,2.949,2.948c-0.09,59.04-0.09,118.08,0,177.121c0.004,2.465-0.484,2.948-2.949,2.946
		C422.948,187.714,338.948,187.729,254.95,187.729z"/>
	<path fill="#ED988F" d="M392.167,112.489c-3.432,3.074-7.107,4.766-8.082,9.574c-0.883,4.352-4.086,7.754-7.529,10.647
		c-2.57,2.164-8.295,0.943-9.719-2.073c-0.566-1.203-0.344-2.304,0.648-3.263c1.553-1.5,2.813-3.524,4.639-4.477
		c4.539-2.363,4.188-6.348,3.686-10.188c-0.381-2.893-1.068-5.77-1.516-8.68c-0.145-0.936-0.572-2.299-1.773-2.484
		c-1.225-0.188-1.879,0.933-2.332,1.896c-2.691,5.707-4.813,11.578-5.084,17.979c-0.645,15.078,2.25,30.037,1.502,45.13
		c-0.119,2.403-0.109,4.836-2.582,5.747c-2.588,0.955-4.977,0.146-7.229-1.78c-3.422-2.922-4.996-6.104-4.758-10.814
		c0.656-13.002-0.34-25.947-2.729-38.768c-0.131-0.697,0-1.439-0.049-2.156c-0.047-0.68,0.213-1.436-0.686-2.252
		c-2.002,3.982-3.953,7.881-5.918,11.773c-2.631,5.219-6.619,9.354-10.918,13.149c-4.025,3.557-9.023,3.029-13.605,1.764
		c-9.182-2.534-13.688-9.661-16.365-18.229c-0.176-0.566-0.125-1.197-1.061-1.713c-1.475,1.938-2.363,4.354-4.262,6.139
		c-4.885,4.584-10.844,4.797-15.786,0.101c-1.981-1.886-4.009-3.729-5.504-6.107c-1.451-2.309-2.432-4.834-3.781-7.719
		c-0.566,1.272-0.894,2.201-1.365,3.043c-2.619,4.678-6.926,6.276-12.888,4.834c-3.563-0.861-6.994-5.896-7.246-10.078
		c-0.501-8.365,1.257-15.83,7.744-21.681c4.004-3.611,8.602-3.591,12.058,0.103c0.896,0.957,1.597,2.018,0.814,3.164
		c-0.729,1.071-1.71,0.11-2.553-0.216c-5.03-1.946-7.776-0.188-8.737,5.136c-1.035,5.734-1.086,11.346,0.813,16.896
		c0.533,1.565,1.023,3.563,2.94,3.616c1.545,0.045,2.102-1.793,2.665-3.069c2.979-6.748,4.981-13.814,6.603-20.988
		c0.749-3.321,2.072-6.211,4.511-8.725c2.171-2.239,4.76-1.819,7.021-1.274c2.3,0.555,2.177,3.093,2.159,5.156
		c-0.066,8.728,1.042,17.417,0.824,26.166c-0.07,2.877,0.507,5.903,1.658,8.68c0.933,2.248,2.406,3.305,4.153,0.932
		c3.491-4.745,7.167-9.532,7.018-15.854c-0.313-13.154,0.113-26.249,4.408-38.824c2.076-6.073,2.844-12.812,7.729-17.681
		c2.297-2.285,6.039-2.943,8.412-0.965c4.629,3.859,8.313,8.019,8.439,14.93c0.215,11.438-3.348,21.405-9.098,30.983
		c-1.586,2.641-0.688,6.079-0.305,9c1.164,8.903,2.521,17.809,5.584,26.334c1.541,4.291,3.453,4.842,6.604,1.561
		c6.035-6.283,9.063-14.334,12.979-21.912c3.281-6.354,2.996-12.512,1.373-18.951c-1.227-4.866,5.791-10.714,10.908-8.885
		c1.438,0.515,2.338,1.788,2.875,3.423c0.891,2.712,1.275,5.587,2.309,8.193c1.021,2.576,0.646,5.442,2.146,8.102
		c0.342-0.778,0.588-1.377,0.861-1.961c2.699-5.783,6-7.487,12.32-6.375c4.447,0.783,8.59,5.879,8.896,10.822
		c0.068,1.107-0.701,2.752,0.643,3.199c1.193,0.397,1.844-1.25,2.727-1.996c1.748-1.479,2.881-3.215,3.52-5.563
		c2.219-8.127,8.295-12.866,15.539-16.178c2.207-1.009,5.094-1.307,6.289,1.967c0.385,1.057,0.885,1.191,1.846,1.079
		c4.756-0.557,6.592,0.358,8.217,4.585c1.611,4.193,3.396,8.396,2.967,13.076c-0.24,2.637,0.779,2.932,3.213,2.18
		c2.908-0.897,4.676-3.196,7.045-4.725c0.723-0.465,0.502-1.207,0.238-1.924c-0.449-1.228-0.814-2.482-1.211-3.728
		c-1.715-5.356-1.842-5.849,3.479-7.233c6.887-1.792,9.746-1.177,11.191,5.544c0.709,3.287,0.787,6.803,2.279,9.979
		c1.607-2.604,1.121-5.414,1.094-8.129c-0.051-4.84,1.436-9.175,4.51-12.802c2.887-3.404,8.365-3.327,11.73-0.277
		c4.793,4.343,6.646,10.093,7.479,16.175c0.82,5.996,2.139,11.98,1.525,18.111c-0.045,0.461-0.021,1.039,0.215,1.396
		c0.639,0.963,0.209,2.729,1.66,2.942c1.494,0.222,2.359-1.209,2.924-2.287c2.322-4.432,4.51-8.938,6.645-13.467
		c0.855-1.815,1.66-3.711,2.109-5.658c0.498-2.145,1.91-2.453,3.486-1.95c1.674,0.53,0.896,1.891,0.439,2.977
		c-3.158,7.531-5.617,15.447-11.529,21.49c-3.498,3.573-8.484,3.649-12.359,0.323c-2.629-2.256-4.139-5.159-5.209-8.389
		c-2.84-8.559-3.764-17.363-3.518-26.329c0.043-1.566,0.24-3.417-1.826-3.662c-1.9-0.225-1.984,1.725-2.477,2.975
		c-1.238,3.151-0.924,6.556-1.377,9.832c-1.227,8.785-0.854,17.666-0.748,26.51c0.033,2.875-0.98,3.766-3.771,3.695
		c-5.021-0.127-7.584-1.886-9.229-6.722c-1.563-4.596-3.256-9.146-4.805-13.748c-0.436-1.295-0.662-1.592-2.361-1.416
		c-3.998,0.416-6.896,3.189-10.576,4.146c-1.076,0.279-0.895,1.52-1.014,2.479c-0.48,3.804-1.734,7.354-3.799,10.58
		c-2.391,3.736-6.217,4.664-10.068,3.785c-8.57-1.955-15.529-6.428-19.756-14.498C392.64,116.239,392.497,114.732,392.167,112.489z"
		/>
	<path fill="#ED988F" d="M206.708,90.172c-0.359,7.77-0.113,17.717,0.854,27.58c0.64,6.541,1.795,13.15,4.786,19.193
		c2.364,4.781,5,5.184,8.765,1.479c3.81-3.743,5.158-8.813,7.041-13.502c2.064-5.141,3.263-10.623,4.984-15.907
		c0.993-3.052,1.063-6.289,2.247-9.316c0.716-1.832-0.248-2.793-2.398-2.729c-4.435,0.133-8.877,0.034-13.316,0.038
		c-0.967,0-2.036,0.099-2.554-0.907c-0.6-1.169,0.594-1.646,1.142-2.353c2.256-2.917,4.938-4.521,8.908-4.001
		c6.572,0.859,12.952-2.017,19.552-1.368c1.009,0.102,2.321-0.525,2.946,0.609c0.68,1.231-1.009,1.813-1.172,2.709
		c-0.633,3.479-2.898,4.86-6.067,5.313c-1.162,0.166-1.188,1.036-1.141,1.887c0.447,8.143-0.309,16.192-2.216,24.098
		c-1.745,7.23-3.862,14.262-8.902,20.187c-4.188,4.92-9.39,4.965-14.679,3.815c-6.13-1.33-11.171-4.903-15.887-9.121
		c-14.476-12.938-21.542-29.963-24.848-48.245c-1.717-9.497-1.463-19.733,0.687-29.604c1.959-8.999,4.285-17.865,9.696-25.398
		c3.888-5.414,8.432-10.685,14.903-13.037c10.713-3.893,25.585-2.404,32.323,8.446c3.43,5.524,3.427,11.536,3.046,17.606
		c-0.156,2.486-2.319,2.627-4.366,2.58c-1.966-0.045-3.149-0.857-3.444-2.868c-0.22-1.491,0.222-2.876,0.782-4.173
		c0.903-2.084,0.979-4.309,0.52-6.342c-0.637-2.821-1.254-6.072-4.888-6.752c-3.974-0.744-6.502,0.739-8.764,4.555
		c-3.518,5.936-5.05,12.541-6.297,19.179c-1.048,5.579-1.802,11.249-2.161,16.913C206.426,76.471,206.708,82.247,206.708,90.172z"/>
	<path fill="#ED988F" d="M48.804,61.031c-5.19-1.833-10.188-3.763-13.963-8.026c-3.258-3.679-4.188-8.841-2.218-13.273
		c4.073-9.164,10.993-14.971,20.518-17.833c9-2.706,16.838-0.052,21.48,7.444c2.188,3.531,3.016,7.49,2.419,11.59
		c-0.409,2.822-2.825,2.709-5.012,2.811c-2.26,0.105-2.868-1.025-2.868-3.083c0-4.036-1.021-7.712-3.987-10.721
		c-1.514-1.534-2.872-1.815-4.125,0.006c-4.818,7.009-7.118,14.774-6.031,23.256c0.275,2.154,1.818,4.224,4.636,4.209
		c1.965-0.01,2.419,1.181,2.334,2.838c-0.078,1.496,0.363,3.08-1.883,3.654c-8.86,2.265-13.986,9.112-18.713,16.101
		c-6.822,10.086-7.741,21.769-6.543,33.304c1.021,9.832,5.297,18.746,13.104,25.424c5.097,4.356,10.841,3.895,15.979-0.777
		c8.982-8.172,15.773-17.738,19.707-29.301c0.351-1.033,0.073-3.52,2.326-2.783c1.918,0.627,1.602,2.846,1.068,4.08
		c-2.808,6.504-4.465,13.473-8.143,19.635c-2.488,4.17-4.455,8.513-7.858,12.25c-6.94,7.627-14.975,8.017-24.128,5.711
		c-10.56-2.655-19.321-8.028-26.024-16.504c-4.868-6.151-7.606-13.459-8.464-21.188C11.24,99.26,13,89.101,19.839,80.503
		C27.912,70.356,35.869,63.173,48.804,61.031z"/>
	<path fill="#ED988F" d="M119.735,70.685c-0.135,12.232-3.831,21.407-9.279,29.933c-1.277,2-1.125,3.959-0.854,5.832
		c1.407,9.709,2.743,19.449,5.689,28.854c1.642,5.235,4.715,5.229,7.664,2.043c5.494-5.935,8.172-13.359,11.676-20.351
		c1.588-3.172,2.731-6.565,4.017-9.885c0.659-1.705,1.807-2.621,3.584-2.105c2.309,0.677,0.652,2.214,0.341,3.16
		c-3.006,9.168-6.508,18.133-12.138,26.07c-2.641,3.721-5.884,6.926-9.756,9.355c-3.989,2.508-14.012,0.813-17.92-2.529
		c-8.471-7.242-11.923-16.605-11.955-27.457c-0.026-8.484-0.645-17.033,0.789-25.422c1.774-10.391,4.027-20.763,9.358-30.021
		c3.146-5.459,6.78-6.083,12.1-1.8C118.13,60.454,120.266,66.02,119.735,70.685z"/>
	<path fill="#ED988F" d="M408.317,80.205c-0.262-3.794,1.58-6.874,2.754-10.022c1.18-3.163,4.502-2.148,6.98-1.86
		c2.529,0.294,2.826,2.925,3.732,4.777c0.146,0.294-0.406,1.048-0.779,1.46c-2.707,2.997-5.408,6-8.211,8.904
		c-0.748,0.776-1.383,2.378-2.783,1.685c-1.188-0.587-1.602-1.998-1.689-3.356C408.286,81.198,408.317,80.6,408.317,80.205z"/>
	<path fill="#FEFEFE" d="M411.784,100.563c0.43,5.715,2.824,9.803,6.99,12.83c0.643,0.467,1.172,0.871,1.016,1.676
		c-0.863,4.387-0.777,9.029-3.004,13.053c-1.176,2.125-3.313,1.656-4.992,0.658c-1.182-0.701-2.172-1.813-2.848-3.152
		C406.067,119.909,407.366,106.536,411.784,100.563z"/>
	<path fill="#FEFEFE" d="M317.882,94.277c0.191-9.89-1.166-19.771,0.404-29.617c0.258-1.606,1.004-2.864,2.66-2.801
		c1.418,0.056,2.313,1.188,2.377,2.69C323.763,74.831,323.444,84.988,317.882,94.277z"/>
	<path fill="#FEFEFE" d="M420.546,107.77c-3.875-3.326-4.813-9.33-2.377-12.271c0.438-0.528,0.902-1.281,1.693-1.105
		c0.943,0.208,0.664,1.133,0.67,1.786C420.562,99.854,420.546,103.529,420.546,107.77z"/>
	<path fill="#FEFEFE" d="M373.255,130.835c-1.752-0.051-2.559-0.883-2.33-2.303c0.369-2.285,2.168-3.393,4.152-3.932
		c0.926-0.25,1.023,1.112,0.746,1.571C374.886,127.725,376.089,130.613,373.255,130.835z"/>
	<path fill="#FEFEFE" d="M109.135,95.138c-1.332-9.322-1.396-18.402-0.337-27.491c0.04-0.354,0.001-0.748,0.145-1.056
		c0.755-1.625,0.76-4.33,3.276-3.949c2.23,0.337,2.223,2.666,2.349,4.615c0.539,8.29-0.701,16.304-3.573,24.08
		c-0.327,0.889-0.657,1.775-1.043,2.638C109.779,94.357,109.465,94.678,109.135,95.138z"/>
</g>
</svg>
