<?xml version="1.0" encoding="utf-8"?>
<!-- Generator: Adobe Illustrator 16.0.3, SVG Export Plug-In . SVG Version: 6.00 Build 0)  -->
<!DOCTYPE svg PUBLIC "-//W3C//DTD SVG 1.1//EN" "http://www.w3.org/Graphics/SVG/1.1/DTD/svg11.dtd">
<svg version="1.1" id="Layer_1" xmlns="http://www.w3.org/2000/svg" xmlns:xlink="http://www.w3.org/1999/xlink" x="0px" y="0px"
	 width="217.297px" height="300px" viewBox="851.352 0 217.297 300" enable-background="new 851.352 0 217.297 300"
	 xml:space="preserve">
<g>
	<g>
		<path fill="#FFFFFF" d="M960,0c-59.909,0-108.648,48.739-108.648,108.648c0,74.348,97.229,183.497,101.369,188.106
			c3.889,4.331,10.677,4.324,14.559,0c4.14-4.609,101.369-113.758,101.369-188.106C1068.647,48.739,1019.908,0,960,0z M960,163.313
			c-30.142,0-54.663-24.522-54.663-54.665c0-30.142,24.521-54.663,54.663-54.663s54.663,24.522,54.663,54.664
			C1014.663,138.791,990.142,163.313,960,163.313z"/>
	</g>
</g>
</svg>
